<?xml version="1.0" encoding="UTF-8"?>
<svg id="_レイヤー_2" data-name="レイヤー 2" xmlns="http://www.w3.org/2000/svg" viewBox="0 0 493.7788086 51.1286621">
  <defs>
    <style>
      .cls-1 {
        fill: #231815;
      }

      .cls-1, .cls-2 {
        stroke-width: 0px;
      }

      .cls-2 {
        fill: #bc272d;
      }
    </style>
  </defs>
  <g id="_レイヤー_1-2" data-name="レイヤー 1">
    <g>
      <path class="cls-1" d="m.7041016,50.0064697v-1.9802856h8.1411133v-3.3884888H3.5644531v-1.9362793h5.2807617v-3.0144043H3.1025391v-1.2982178c-.5283203.2860107-1.3642578.7041016-1.9804688.9681396l-1.1220703-2.090332c5.9628906-2.2662964,9.0654297-6.3148804,9.0654297-6.3148804h1.7382812s3.6083984,3.9385376,9.175293,6.0288696l-1.1665039,2.090332c-.527832-.2420654-1.4082031-.7041016-1.8920898-.9901733v1.6062622h-5.7871094v3.0144043h5.2148438v1.9362793h-5.2148438v3.3884888h8.1416016v1.9802856H.7041016Zm15.578125-12.277771c-3.8286133-2.2662964-6.2490234-4.7747192-6.2490234-4.7747192,0,0-2.0458984,2.3983765-5.8305664,4.7747192h12.0795898Z"/>
      <g>
        <path class="cls-1" d="m115.4003906,49.7644043v1.1002197h-2.1787109v-18.9887695h17.625v1.9802856h-15.4462891v13.9280396h16.3041992v1.9802246h-16.3041992Zm12.3876953-3.1904297s-1.6503906-1.9362793-4.1806641-4.4006348c-3.0146484,3.168457-5.875,4.8187256-5.875,4.8187256l-1.4741211-1.6722412s3.1025391-1.5182495,5.8530273-4.5766602c-1.4521484-1.3642578-3.1245117-2.6403809-4.862793-4.0046387l1.5180664-1.4082031c1.7382812,1.3201904,3.2563477,2.5964355,4.6865234,3.8725586,1.1445312-1.3641357,2.1123047-2.9263916,2.8608398-4.7086182l2.0019531.7921143c-.9018555,2.090271-2.15625,3.8725586-3.4101562,5.3687744,2.684082,2.5523682,4.4443359,4.4445801,4.4443359,4.4445801l-1.5620117,1.4742432Z"/>
        <path class="cls-1" d="m141.5585938,45.9138794v-10.4295044h4.3564453v-1.8042603h-8.0751953v-1.8703003h18.4384766v1.8703003h-8.2070312v1.8042603h4.4887695v10.4295044h-11.0014648Zm12.4316406,4.9507446v-1.2982178h-13.8618164v1.2982178h-2.0683594v-13.9940186h2.0683594v10.8255615h13.8618164v-10.8255615h2.0683594v13.9940186h-2.0683594Zm-7.965332-13.6199951h-2.5302734v2.5523682h2.5302734v-2.5523682Zm0,4.0925903h-2.5302734v2.8164062h2.5302734v-2.8164062Zm4.5986328-4.0925903h-2.6621094v2.5523682h2.6621094v-2.5523682Zm0,4.0925903h-2.6621094v2.8164062h2.6621094v-2.8164062Z"/>
        <path class="cls-1" d="m171.7871094,47.6081543c4.730957-.0880127,7.2392578-3.6085205,7.2392578-6.9970703,0-2.8383789-1.7822266-5.5667725-5.5449219-6.0068359-.5942383,3.8505859-2.2661133,9.7474365-3.8945312,12.1677246-.9682617,1.4302368-2.2666016,2.2003174-3.5205078,2.2003174-2.7944336,0-3.8725586-3.5424805-3.8725586-6.2489014,0-4.7526855,3.1025391-9.9893799,9.9453125-10.2094727h.4179688c5.8530273,0,8.8232422,4.114624,8.8232422,8.3612061,0,4.048584-2.7060547,8.1851807-8.2290039,8.9772949l-1.3642578-2.2442627Zm-7.3710938-5.12677c0,.3740845.2202148,3.9605713,1.8261719,3.9605713,2.0683594,0,4.4008789-8.1851807,4.8408203-11.8596802-4.2905273.5940552-6.6669922,4.3565674-6.6669922,7.8991089Z"/>
        <path class="cls-1" d="m205.1845703,50.864624c-4.246582-2.5303955-7.1513672-6.4469604-8.4492188-9.8794556-.9902344,3.6965332-4.2246094,7.6350708-8.6914062,9.8794556l-1.3862305-2.0683594c6.0727539-2.7283936,8.2514648-7.4370117,8.6474609-10.6715088h-8.1411133v-2.024292h8.2290039v-5.0386963h2.2880859v5.0386963h8.2514648v2.024292h-8.1411133s1.1879883,6.3149414,8.6689453,10.6055298l-1.2758789,2.1343384Z"/>
        <path class="cls-1" d="m211.4077148,50.1384888v-1.9802856h8.7133789v-2.5743408h-6.8212891v-1.9143066h6.8212891v-1.2321777h2.2661133v1.2321777h6.9091797v1.9143066h-6.9091797v2.5743408h8.8232422v1.9802856h-19.8027344Zm7.2612305-8.3391724v-3.3225098h-2.3325195s-.1538086,3.036438-2.9702148,4.2026367l-1.628418-1.6062622c2.3105469-.6600952,2.4423828-2.5963745,2.4423828-2.5963745h-2.5302734v-1.8482666h2.7724609v-2.9044189h-2.0244141v-1.8262939h10.5395508v1.8262939h-2.1123047v2.9044189h2.6845703v1.8482666h-2.6845703v3.3225098h-2.15625Zm0-8.0751953h-2.1342773v2.9044189h2.1342773v-2.9044189Zm5.7207031,5.3468018v-6.9310303h2.15625v6.9310303h-2.15625Zm1.3203125,1.2981567c2.5742188,0,2.5961914-.1539917,2.5961914-.7700806v-8.3172607h2.15625v8.2952271c0,2.156311-.4619141,2.6624146-3.9824219,2.8823853l-.7700195-2.090271Z"/>
        <path class="cls-1" d="m236.2016602,38.520813c3.234375-1.8703003,5.0830078-3.8945923,6.402832-7.4370728l1.9804688.8361206c-1.3422852,3.6525269-3.0805664,6.1608887-6.7329102,8.4932251l-1.6503906-1.8922729Zm10.0776367,9.9014282c4.0263672,0,4.0483398-.3740234,4.0483398-2.2443237v-5.2147827h-4.378418c-.1762695,2.090332-1.2543945,7.7671509-7.3930664,9.9014893l-1.2983398-2.024292c5.3027344-1.5182495,6.2709961-5.5668335,6.3808594-7.8771973h-3.6962891v-1.9802246h12.6079102v6.1168213c0,4.2466431-.2421875,5.2807617-5.3691406,5.4128418l-.9018555-2.090332Zm8.0092773-8.163208c-3.0585938-2.3103027-5.1708984-4.5325928-6.7109375-8.3391724l1.8920898-.8361206c1.4960938,3.3664551,3.4326172,5.5007935,6.46875,7.3050537l-1.6499023,1.8702393Z"/>
        <path class="cls-1" d="m260.9077148,36.496521v-1.7602539h7.4370117v1.7602539h-7.4370117Zm2.706543,13.5319214v.8361816h-2.0024414v-6.9310303h6.1831055v6.0948486h-4.1806641Zm-1.7382812-16.6783447v-1.6502686h5.6328125v1.6502686h-5.6328125Zm0,9.1533203v-1.6062622h5.6328125v1.6062622h-5.6328125Zm.0219727-2.970459v-1.6062012h5.6108398v1.6062012h-5.6108398Zm3.8505859,6.0288696h-2.1342773v2.5963745h2.1342773v-2.5963745Zm13.5756836,5.2807617c-3.6083984-2.2443237-4.5766602-5.6987915-4.8183594-6.6229858h-.8144531c-.2197266.3300781-.5717773.7481689-.9018555,1.0561523v3.2344971c.8579102-.1760254,1.6723633-.3960571,2.5302734-.6821289l.0878906,1.7602539c-2.3100586.8581543-5.9848633,1.2542114-5.9848633,1.2542114l-.4838867-1.8482666s.7260742-.0440063,1.7602539-.1760254v-2.0463257c-1.0561523.6601562-1.8920898,1.1002197-1.8920898,1.1002197l-.9243164-1.8262939c1.5180664-.4400635,2.7504883-1.078125,3.5864258-1.8262939h-3.234375v-1.6502075h2.8383789v-1.4302368h-2.090332v-1.3861694h2.090332v-1.2981567h-2.3544922v-1.4742432h2.3544922v-1.3421631c-.5058594.4180298-1.078125.7700806-1.078125.7700806l-1.3862305-1.210144s1.2319336-.6160889,1.8481445-1.2102051h-1.9140625v-1.7382812h4.6206055v-1.1881104h2.1342773v1.1881104h4.9946289v1.7382812h-1.8041992c.550293.5500488,1.628418,1.078125,1.628418,1.078125l-1.2763672,1.3862305s-1.2763672-.8581543-2.3100586-1.8702393l.7480469-.5941162h-5.8530273l.7919922.6600952c-.2641602.3300171-.6821289.6600952-1.012207.9241333h1.8925781v1.4082031h2.5083008v-1.3862305h2.0244141v1.3862305h2.3320312v1.4742432h-2.3320312v1.2981567h1.8701172v1.3861694h-1.8701172v1.4302368h2.9042969v1.6502075h-4.0488281c.1323242.5061035.3959961,1.1002197.7260742,1.6722412.484375-.3520508,1.012207-.9681396,1.2763672-1.4082031l1.6943359.9901733c-.4619141.6600952-1.3203125,1.4522095-1.9145508,1.8703003.5063477.5280762,1.4526367,1.1881104,2.4204102,1.5842285l-1.3642578,1.9142456Zm-3.7182617-12.3877563h-2.5083008v1.2981567h2.5083008v-1.2981567Zm0,2.6843262h-2.5083008v1.4302368h2.5083008v-1.4302368Z"/>
        <path class="cls-1" d="m292.5229492,46.2438965s-2.0463867,1.0341797-6.2490234,2.4643555l-.5722656-2.2003174c.8803711-.2199707,1.7163086-.5500488,2.4643555-.8140869v-6.8649902h-1.9799805v-1.9802856h1.9799805v-5.1487427h2.1123047v5.1487427h2.0244141v1.9802856h-2.0244141v6.2269287c1.5625-.6381226,2.2446289-1.012207,2.2446289-1.012207v2.2003174Zm3.7402344,4.0266113s-1.9799805,0-1.9799805-1.958252v-9.7474365l-1.4082031.2640381v-2.0682983l1.4082031-.2640381v-4.0265503h2.090332v3.6744995l1.8701172-.3740845v-4.7086182h2.0463867v4.3345947l4.1806641-.8140869v6.7549438c0,2.0682983-.4404297,2.5303345-3.0366211,2.6624146l-.6601562-1.9362793c1.6064453,0,1.6064453-.0880127,1.6064453-.946167v-4.0925903l-2.090332.3960571v7.6571045h-2.0463867v-7.3050537l-1.8701172.3740234v9.3734131c0,.7921143.8798828.7700806.8798828.7700806h3.8505859c1.7382812,0,2.1342773-.0220337,2.1342773-3.168457l2.1782227,1.2981567c0,3.1245117-1.4082031,3.8505859-3.1904297,3.8505859h-5.9628906Z"/>
        <path class="cls-1" d="m320.3955078,49.8744507l19.2749023-19.2747803,1.2319336,1.2321777-19.2524414,19.296814-1.2543945-1.2542114Z"/>
      </g>
      <g>
        <path class="cls-2" d="m38.1381836,16.7385864h-8.9423828c.2402344-5.1970215,1.8725586-9.286499,4.8969727-12.267334,3.0244141-2.980835,6.90625-4.4712524,11.6450195-4.4712524,2.9262695,0,5.5083008.6172485,7.7470703,1.850708,2.2382812,1.2340088,4.0292969,3.0136108,5.3720703,5.3393555,1.3432617,2.3256836,2.0146484,4.6898193,2.0146484,7.0917969,0,2.861084-.8144531,5.9401855-2.4418945,9.2373047-1.6279297,3.2976685-4.6044922,7.1956787-8.9301758,11.6940918l-5.4077148,5.699646h17.1728516v8.4839478H27.8857422v-4.3894043l14.9042969-15.1990356c3.6030273-3.6466675,5.9995117-6.5784302,7.1899414-8.795105,1.1899414-2.2161865,1.7851562-4.2199707,1.7851562-6.0108032,0-1.855896-.6171875-3.3903198-1.8505859-4.6022949-1.234375-1.2120361-2.8227539-1.8179932-4.7661133-1.8179932-1.965332,0-3.6035156.7318726-4.9135742,2.1946411-1.3100586,1.4633179-2.0092773,3.4507446-2.0966797,5.961731Z"/>
        <path class="cls-2" d="m86.5908203,0h9.1416016v31.0204468h4.2910156v8.4839478h-4.2910156v9.8924561h-8.9755859v-9.8924561h-21.0292969v-8.4839478L86.5908203,0Zm.1660156,31.0204468V14.87146l-11.0058594,16.1489868h11.0058594Z"/>
      </g>
      <g>
        <path class="cls-1" d="m399.9238281,50.0284424s.3959961-2.8383789.3959961-5.5667725l1.3203125.06604c0,2.8823853-.2202148,5.7647705-.2202148,5.7647705l-1.4960938-.2640381Zm4.2246094-1.2981567c1.6064453,0,2.3325195-.0220337,2.5966797-1.6722412l-.9462891.2860718s-.2421875-1.2542114-.7919922-2.8604736l1.0117188-.3300171c.3081055.9021606.6381836,1.9142456.7924805,2.6183472.065918-.7041016.0878906-1.9362793.0878906-3.1464233h-6.46875v-11.9037476h8.2290039v1.7602539h-2.5302734v1.6282959h1.9140625v1.5621948h-1.9140625v1.7382202h1.9140625v1.5622559h-1.9140625v1.8262939h2.7504883c-.0883789,6.4028931-.0664062,8.8012695-3.9389648,8.9332275l-.7919922-2.0022583Zm-1.9140625-.0220337s-.0219727-1.7382202-.3081055-3.7185059l1.078125-.1760254c.3959961,2.3543701.527832,3.7625732.527832,3.7625732l-1.2978516.131958Zm1.9799805-15.2261963h-1.7822266v1.6282959h1.7822266v-1.6282959Zm0,3.1904907h-1.7822266v1.7382202h1.7822266v-1.7382202Zm0,3.3004761h-1.7822266v1.8262939h1.7822266v-1.8262939Zm-.0878906,8.163208s-.2421875-1.7382812-.5942383-3.3665161l1.0341797-.2200317c.484375,1.7382812.7924805,3.3444824.7924805,3.3444824l-1.2324219.2420654Zm13.7739258,2.7283936s-2.7060547-3.5425415-3.6743164-10.6936035h-2.090332v.5721436c0,3.6085205-.3520508,7.28302-1.8701172,10.12146l-1.9365234-1.7602539c1.4301758-2.5084229,1.6064453-6.1608887,1.6064453-8.3612061v-8.9553223h9.2192383v8.3831787h-2.706543c.6601562,5.9848633,3.3447266,9.175354,3.3447266,9.175354l-1.8925781,1.5182495Zm-.8798828-17.206543h-4.8847656v4.6427002h4.8847656v-4.6427002Z"/>
        <path class="cls-1" d="m429.5146484,50.864624v-10.6715698c-.4619141,2.090271-1.6503906,4.9287109-3.5205078,7.0630493l-1.3422852-2.2663574c1.8481445-1.8482666,3.3886719-4.8626709,3.7407227-6.1828613h-3.2124023v-1.892334h4.3344727v-2.9483643c-1.0561523.1099854-2.2001953.2199707-3.5644531.3079834l-.7041016-1.9802246c3.5424805-.0880127,7.019043-.5501099,9.2192383-1.1882324l.7480469,1.8482666s-1.1879883.3961182-3.5644531.7481689v3.2124023h4.0043945v1.892334h-2.8603516c.9682617,2.2883301,2.8823242,4.4226074,2.8823242,4.4226074l-1.4521484,2.1783447s-1.7382812-2.2663574-2.5742188-5.3468018v10.8035889h-2.1342773Zm7.3491211-5.12677v-13.1578979h2.2001953v13.1578979h-2.2001953Zm1.5180664,2.7943726c2.5083008,0,2.8823242-.0219727,2.8823242-.5720215v-16.8984375h2.2006836v16.8984375c0,2.3763428-1.6943359,2.6623535-4.2026367,2.6623535l-.8803711-2.090332Z"/>
        <path class="cls-1" d="m462.8457031,48.5762939c.4179688.0219727.7705078.0219727,1.0561523.0219727,1.6503906,0,1.7163086-.2420654,1.7163086-.5941162v-3.9165039h-5.2587891v5.9848633h-2.2001953v-5.9848633h-5.1044922c-.1982422,2.4202881-.6821289,4.9946899-1.8706055,6.7989502l-1.7382812-1.6062012c1.496582-2.2223511,1.5405273-6.9970703,1.5405273-9.5274048v-8.0531616l16.8320312.0219727v16.3703613c0,1.7822876-.4619141,2.6624146-4.0922852,2.6624146l-.8803711-2.1782837Zm-4.6865234-9.6594238h-4.9726562s-.0219727,2.156311-.0219727,3.1904297h4.9946289v-3.1904297Zm0-5.2367554h-4.9726562v3.2564697h4.9726562v-3.2564697Zm7.4589844.0220337h-5.2587891v3.234436h5.2587891v-3.234436Zm0,5.2147217h-5.2587891v3.1904297h5.2587891v-3.1904297Z"/>
        <path class="cls-1" d="m488.6079102,33.8781738h-14.2797852v-1.9803467h19.4506836v1.9803467h-3.0146484v13.9719849c0,1.9802856-.6601562,2.9264526-5.3466797,2.9264526l-.9462891-1.9803467c3.9609375,0,4.1367188-.1760254,4.1367188-.946106v-13.9719849Zm-9.9453125,11.4196167v2.156311h-2.15625v-10.5834961h9.2192383v8.4271851h-7.0629883Zm4.9067383-6.4469604h-4.9067383v4.4666748h4.9067383v-4.4666748Z"/>
      </g>
      <path class="cls-2" d="m367.949707,13.1026001h-8.8115234c.4584961-3.5592041,1.7363281-6.4202881,3.8325195-8.5822144,2.9262695-3.0136108,6.6054688-4.5203857,11.0390625-4.5203857,3.9521484,0,7.2661133,1.2559814,9.9414062,3.7669678,2.6748047,2.5115356,4.0126953,5.4923706,4.0126953,8.9425659,0,2.1404419-.5844727,4.0945435-1.7524414,5.8634033-1.168457,1.7688599-2.8662109,3.1994019-5.0932617,4.2911377,2.9257812.8736572,5.2133789,2.3968506,6.8623047,4.569519,1.6484375,2.1731567,2.4731445,4.7333374,2.4731445,7.6813965,0,4.3238525-1.5942383,7.9874878-4.7827148,10.9898071-3.1884766,3.0028687-7.2504883,4.5040283-12.1850586,4.5040283-4.6738281,0-8.4838867-1.4136353-11.4321289-4.2419434-2.9482422-2.8278198-4.5644531-6.6766968-4.8481445-11.5466919h9.0737305c.3930664,2.489502,1.2612305,4.34021,2.6040039,5.5522461,1.3432617,1.2119751,3.0410156,1.8179932,5.09375,1.8179932,2.1396484,0,3.9145508-.6879272,5.3227539-2.0636597,1.4086914-1.3757935,2.112793-3.0571289,2.112793-5.0445557,0-2.1834106-.949707-4.0290527-2.8496094-5.5358276-1.8999023-1.5067749-4.640625-2.2816772-8.222168-2.3257446v-7.8615723c2.2055664-.1744995,3.8491211-.5184326,4.9301758-1.0317993,1.0810547-.5128174,1.9213867-1.2171021,2.5219727-2.112793.6005859-.8952026.9008789-1.8450928.9008789-2.8498535,0-1.3102417-.4584961-2.3963013-1.3754883-3.2592773-.9174805-.8623657-2.1186523-1.2938232-3.6035156-1.2938232-1.3100586,0-2.5004883.3986816-3.5703125,1.1955566-1.0703125.7974243-1.8017578,1.8292847-2.1948242,3.09552Z"/>
    </g>
  </g>
</svg>