<?xml version="1.0" encoding="UTF-8"?>
<svg id="_レイヤー_2" data-name="レイヤー 2" xmlns="http://www.w3.org/2000/svg" viewBox="0 0 451.2487679 85.1953125">
  <defs>
    <style>
      .cls-1 {
        fill: none;
        stroke: #231815;
        stroke-miterlimit: 10;
      }

      .cls-2 {
        fill: #231815;
      }

      .cls-2, .cls-3, .cls-4 {
        stroke-width: 0px;
      }

      .cls-4 {
        fill: #bc272d;
      }
    </style>
  </defs>
  <g id="_レイヤー_1-2" data-name="レイヤー 1">
    <g>
      <g>
        <path class="cls-2" d="m68.2143555,85.1953125c-2.8603516-2.7402344-4.0810547-5.6611328-4.0810547-9.4023438,0-4.0800781,1.5205078-6.9208984,4.0810547-9.4013672l1.0205078.9003906c-2.0205078,2.2197266-3.4404297,5.0410156-3.4404297,8.5009766,0,3.28125,1.3398438,6.1816406,3.4404297,8.4824219l-1.0205078.9199219Z"/>
        <path class="cls-2" d="m84.0336914,84.2753906c-2.9013672,0-4.8818359-.9199219-6.2822266-2.1601562-.6601562.9599609-1.4599609,1.8798828-2.6201172,2.6601562l-1.3603516-1.6601562c1.1005859-.6601562,2.0400391-1.4404297,2.6005859-2.3603516-.7802734-1.140625-1.3398438-2.5410156-1.7607422-3.5615234l1.7607422-.8398438c.2597656.7597656.6005859,1.6806641,1,2.4003906.4199219-1.2597656.5205078-2.640625.5205078-3.5605469h-3.3408203v-1.5800781c1.6005859-1.8408203,3.1601562-4.4414062,3.1601562-4.4414062h-3.3798828v-1.7998047h5.5810547v1.6601562s-1.8203125,3.2001953-2.8408203,4.3603516h2.8603516c0,2.2207031-.1796875,4.6816406-1.1796875,7.0019531,1.2001953,1.2402344,2.9599609,2.0800781,5.3603516,2.0800781l7.7421875-.0996094-.6806641,1.9003906h-7.140625Zm2.4199219-3.9208984v1.5205078h-1.9599609v-1.5205078h-4.6416016v-1.6201172h4.6416016v-1.2402344h-3.7207031v-1.4404297h3.7207031v-1.2001953h-3.7207031v-1.4404297h3.7207031v-1.3007812h-4.78125v-1.4794922h4.78125v-1.2207031h-3.640625v-1.4404297h3.640625v-1.2001953h1.9599609v1.2001953h4.2207031v2.6611328h.9804688v1.4794922h-.9804688v2.7412109h-4.2207031v1.2001953h4.1611328v1.4404297h-4.1611328v1.2402344h5.1416016v1.6201172h-5.1416016Zm2.3203125-10.9423828h-2.3203125v1.2207031h2.3203125v-1.2207031Zm0,2.7001953h-2.3203125v1.3007812h2.3203125v-1.3007812Z"/>
        <path class="cls-2" d="m96.4311523,82.8349609c3.5009766-.8603516,5.0205078-1.9404297,5.0205078-5.1806641v-.3808594h1.9804688v.3808594c0,4.5205078-2.4804688,6.0605469-5.78125,7.1210938l-1.2197266-1.9404297Zm15.4433594-4.1210938v-2.4804688h-12.9833984v2.5009766h-2v-4.3007812h16.9833984v4.2802734h-2Zm-13.9033203-5.6611328v-1.6806641h6.3212891v-1.5996094h-7.0615234v-1.6806641h7.0615234v-1.3203125h2.0410156v1.3203125h7.1416016v1.6806641h-7.1416016v1.5996094h6.4013672v1.6806641h-14.7636719Zm10.6425781,11.3623047s-1.8007812,0-1.8007812-1.7802734v-5.3808594h1.9609375v4.6611328c0,.7197266.7998047.7001953.7998047.7001953h1.4404297c.6796875,0,1.2802734-.0800781,1.2802734-2.78125l2.1005859,1.0800781c-.4404297,2.9609375-1.1601562,3.5009766-2.8408203,3.5009766h-2.9404297Z"/>
        <path class="cls-2" d="m126.1723633,83.2753906v-3.4208984h-7.5410156v-1.9804688l7.4208984-10.2021484h2.2607422v10.2421875h2.6210938v1.9404297h-2.6210938v3.4208984h-2.140625Zm0-12.6035156l-5.2607422,7.2421875h5.2607422v-7.2421875Z"/>
        <path class="cls-2" d="m137.9116211,84.7753906v-10.5419922c-.2802734,1.4003906-.7207031,3.3408203-1.5205078,5.2607422l-1.2402344-2.0205078c1.0800781-1.7001953,2-4.140625,2.2402344-5.5410156h-1.7197266v-1.8007812h2.2402344v-3.3603516h1.8603516v3.3603516h1.9003906v1.8007812h-1.4404297c1.0605469,1.9003906,1.8203125,2.7207031,1.8203125,2.7207031l-1.2197266,1.9804688s-.5205078-1.3808594-1.0605469-3.0810547v11.2226562h-1.8603516Zm13.8828125-1.1005859c-1.640625-1.4003906-2.7802734-2.9199219-3.5205078-4.5205078v5.6210938h-1.9609375v-5.5214844c-.7802734,1.7207031-2.2402344,3.5214844-3.9609375,4.6611328l-1.5-1.8798828c1.8408203-.8408203,3.6210938-2.3408203,4.4208984-3.6816406h-2.9404297v-7.2412109h3.9804688v-1.3398438h-4.6005859v-1.6806641h4.6005859v-1.3203125h1.9609375v1.3203125h4.3603516v1.6806641h-4.3603516v1.3398438h3.9609375v7.2412109h-2.8613281c.8203125,1.1611328,2.0605469,2.3212891,3.78125,3.3212891l-1.3603516,2Zm-5.4414062-11.1025391h-2.1005859v1.3603516h2.1005859v-1.3603516Zm0,2.7607422h-2.1005859v1.5605469h2.1005859v-1.5605469Zm3.9609375-2.7607422h-2.0800781v1.3603516h2.0800781v-1.3603516Zm0,2.7607422h-2.0800781v1.5605469h2.0800781v-1.5605469Z"/>
        <path class="cls-2" d="m156.590332,83.7353516l6.1816406-16.5234375h1.8203125l-6.1816406,16.5234375h-1.8203125Z"/>
        <path class="cls-2" d="m185.3745117,75.59375c-3.1806641-.4404297-5.7216797-1.2607422-7.7011719-2.0605469-2.1005859.9599609-4.9619141,1.9199219-8.7822266,2.5l-.7402344-1.9404297c3.0009766-.3193359,5.4609375-.8798828,7.3417969-1.5595703-1.4804688-.8007812-2.4804688-1.5205078-2.9804688-1.9208984-1.3007812.6396484-2.3408203.9804688-2.3408203.9804688l-1.1201172-1.7207031s3.8203125-1,5.8212891-3.0810547l2.0800781.3603516c-.2197266.3203125-.8398438.7802734-1.2001953,1h7.1611328v1.7607422s-.8798828,1.1005859-3.1201172,2.5205078c1.7402344.5605469,3.9003906.9599609,6.3613281,1.1806641l-.7802734,1.9804688Zm-.3203125,8.5615234c-3.1201172-1.4599609-5.4804688-3.2412109-6.9609375-5.0009766v5.6210938h-1.9404297v-5.6210938c-1.5605469,1.8203125-3.7412109,3.5410156-6.8818359,4.9003906l-1.1201172-1.8203125c3.0205078-1.1396484,5.1611328-2.4599609,6.5615234-3.7001953h-6.0810547v-1.8007812h7.5214844v-1.7597656h1.9404297v1.7597656h7.5810547v1.8007812h-6.140625c1.2001953,1.0595703,3.5,2.5,6.640625,3.8007812l-1.1201172,1.8203125Zm-10.6220703-14.2832031c.6005859.4804688,1.7402344,1.1601562,3.2207031,1.7802734,1.9003906-.9003906,2.7802734-1.7802734,2.7802734-1.7802734h-6.0009766Z"/>
        <path class="cls-2" d="m192.8911133,84.7753906v-10.3417969c-.5195312.7998047-1.1796875,1.6601562-1.1796875,1.6601562l-1.2207031-1.9404297s2.9609375-3.0810547,4.2412109-7.3417969l1.8798828.5605469c-.5800781,1.6796875-1.0800781,2.8398438-1.7597656,4.0605469v13.3427734h-1.9609375Zm9.0019531,0v-6.1816406h-5.5205078v-1.7597656h5.5205078v-4.28125h-3.3203125c-.8203125,1.7207031-1.640625,2.5605469-1.640625,2.5605469l-1.4804688-1.3603516s1.7607422-1.6201172,2.78125-5.7412109l1.8798828.3203125c-.2197266.9199219-.5400391,1.7197266-.7998047,2.4599609h2.5800781v-4.0205078h1.9609375v4.0205078h4.0009766v1.7607422h-4.0009766v4.28125h4.8007812v1.7597656h-4.8007812v6.1816406h-1.9609375Z"/>
        <path class="cls-2" d="m215.5317383,84.7753906v-10.3027344c-.7207031.9404297-1.3603516,1.5410156-1.3603516,1.5410156l-1.0205078-1.8603516c1.6806641-1.5810547,3.4003906-4.0615234,4.3808594-7.3417969l1.8007812.5605469c-.5,1.7197266-1.140625,3.2001953-1.8203125,4.4208984v12.9824219h-1.9804688Zm8.3212891-2.1005859c2.8808594,0,3.1611328-.0595703,3.1611328-1.0800781v-9.1015625h-8.0224609v-1.8007812h8.0224609v-3.7207031h2v3.7207031h2.140625v1.8007812h-2.140625v9.0419922c0,2.0996094-.3203125,3.0800781-4.3613281,3.0800781l-.7998047-1.9404297Zm-.9199219-2.8408203s-1.0800781-2.8203125-2.7207031-5.0009766l1.7607422-.8398438c1.7001953,2.1806641,2.7197266,4.8408203,2.7197266,4.8408203l-1.7597656,1Z"/>
        <path class="cls-2" d="m249.4936523,83.9550781c-1.7597656.2197266-3.3808594.3203125-4.8408203.3203125-4.5205078,0-7.3613281-1.1005859-7.3613281-3.9208984,0-.1005859.0195312-.2197266.0195312-.3398438.2001953-2.4404297,2.5009766-3.5410156,5.6210938-3.5410156,1.1005859,0,2.3007812.1396484,3.5410156.4003906-.4804688-.5800781-.9804688-1.3203125-1.4599609-2.1611328-2.8007812.3007812-5.5615234.5205078-8.1015625.6806641l-.2402344-2.0009766h.2998047c1.8808594,0,4.4609375-.1796875,7.1416016-.4394531-.2802734-.5605469-.5400391-1.140625-.7998047-1.7207031-2.140625.2197266-4.2412109.3798828-5.9619141.4404297l-.2197266-1.9404297h.6601562c1.3398438,0,3.0400391-.0800781,4.8007812-.2402344-.2597656-.7001953-.5-1.3603516-.7197266-2.0009766l2.1396484-.4394531c.1601562.6601562.4208984,1.4003906.7402344,2.2207031,2.0205078-.2207031,3.9609375-.5205078,5.3818359-.8408203l.1796875,1.9003906c-1.4404297.2402344-3.1210938.4599609-4.8408203.6601562.2197266.5.4794922,1,.8603516,1.7001953,1.8398438-.2197266,3.6005859-.5,5.1005859-.7802734l.2207031,1.9414062c-1.4003906.2197266-2.8613281.4199219-4.3417969.5996094.9208984,1.5,1.9804688,2.9003906,3.0615234,3.8408203l-1.6611328,1.3603516c-1.4804688-.9003906-3.6005859-1.3808594-5.4208984-1.3808594-2,0-3.6611328.5810547-3.7607422,1.7607422v.1601562c0,1.6201172,2.140625,2.1201172,4.78125,2.1201172,1.6796875,0,3.5400391-.2197266,5.1806641-.4794922v2.1201172Z"/>
        <path class="cls-2" d="m257.1508789,83.9150391v-1.8603516h7.921875v-7.4013672h-6.6816406v-1.8603516h6.6816406v-5.8212891h2.140625v5.8212891h6.7207031v1.8603516h-6.7207031v7.4013672h7.9414062v1.8603516h-18.0039062Z"/>
        <path class="cls-2" d="m285.8920898,80.5742188s-1.8603516.9404297-5.6806641,2.2402344l-.5205078-2c.7998047-.2001953,1.5605469-.5,2.2402344-.7402344v-6.2412109h-1.7998047v-1.8007812h1.7998047v-4.6806641h1.9208984v4.6806641h1.8398438v1.8007812h-1.8398438v5.6611328c1.4199219-.5800781,2.0400391-.9199219,2.0400391-.9199219v2Zm3.4003906,3.6611328s-1.7998047,0-1.7998047-1.7802734v-8.8623047l-1.2802734.2402344v-1.8798828l1.2802734-.2402344v-3.6611328h1.9003906v3.3408203l1.7001953-.3398438v-4.28125h1.8603516v3.9404297l3.8007812-.7392578v6.140625c0,1.8808594-.4003906,2.3007812-2.7607422,2.4208984l-.5996094-1.7607422c1.4599609,0,1.4599609-.0800781,1.4599609-.8603516v-3.7207031l-1.9003906.3603516v6.9619141h-1.8603516v-6.6416016l-1.7001953.3398438v8.5214844c0,.7207031.7998047.7001953.7998047.7001953h3.5009766c1.5800781,0,1.9404297-.0195312,1.9404297-2.8798828l1.9804688,1.1796875c0,2.8408203-1.2802734,3.5009766-2.9003906,3.5009766h-5.421875Z"/>
        <path class="cls-2" d="m302.8305664,83.2753906l.0205078-1.0605469c.1201172-2.9804688,2.1005859-5.4414062,4.8007812-6.7412109,2.5410156-1.2001953,3.5009766-2.3603516,3.5009766-3.7011719,0-1.5-1.0800781-2.5-3.0205078-2.5-1.640625,0-2.9804688,1.2802734-3.0605469,3.3203125l-2.1005859-.5c.1396484-2.9404297,2.4199219-4.78125,5.28125-4.78125,3.3408203,0,5.2412109,1.8408203,5.2412109,4.3613281,0,2.2001953-1.2802734,3.8007812-4.5009766,5.28125-2.0605469.9394531-3.5615234,2.5800781-3.6416016,4.3007812h8.2421875v2.0205078h-10.7626953Z"/>
        <path class="cls-2" d="m318.6303711,75.4736328c0-4.5615234,1.8007812-8.1621094,5.7216797-8.1621094,3.9003906,0,5.7207031,3.5605469,5.7207031,8.1621094,0,4.7607422-1.8203125,8.1611328-5.7207031,8.1611328-3.9208984,0-5.7216797-3.2802734-5.7216797-8.1611328Zm9.1621094,0c0-3.4609375-1.1396484-6.1611328-3.4404297-6.1611328s-3.4404297,2.6201172-3.4404297,6.1611328c0,3.6005859,1.1601562,6.1806641,3.4404297,6.1806641,2.2607422,0,3.4404297-2.5800781,3.4404297-6.1806641Z"/>
        <path class="cls-2" d="m337.4711914,83.7753906v1h-1.9804688v-17.2636719h16.0234375v1.8007812h-14.0429688v12.6621094h14.8232422v1.8007812h-14.8232422Zm11.2626953-2.9003906s-1.5009766-1.7607422-3.8007812-4.0009766c-2.7412109,2.8798828-5.3417969,4.3808594-5.3417969,4.3808594l-1.3398438-1.5205078s2.8203125-1.3808594,5.3212891-4.1611328c-1.3203125-1.2402344-2.8408203-2.4003906-4.4208984-3.640625l1.3798828-1.2802734c1.5800781,1.2001953,2.9609375,2.3603516,4.2607422,3.5205078,1.0400391-1.2402344,1.9208984-2.6601562,2.6005859-4.2802734l1.8203125.7197266c-.8203125,1.9003906-1.9599609,3.5205078-3.1005859,4.8808594,2.4404297,2.3203125,4.0410156,4.0410156,4.0410156,4.0410156l-1.4199219,1.3408203Z"/>
        <path class="cls-2" d="m361.2514648,80.2744141v-9.4824219h3.9609375v-1.6396484h-7.3417969v-1.7011719h16.7636719v1.7011719h-7.4619141v1.6396484h4.0810547v9.4824219h-10.0019531Zm11.3027344,4.5009766v-1.1806641h-12.6035156v1.1806641h-1.8798828v-12.7226562h1.8798828v9.8417969h12.6035156v-9.8417969h1.8798828v12.7226562h-1.8798828Zm-7.2421875-12.3828125h-2.3007812v2.3203125h2.3007812v-2.3203125Zm0,3.7207031h-2.3007812v2.5605469h2.3007812v-2.5605469Zm4.1806641-3.7207031h-2.4199219v2.3203125h2.4199219v-2.3203125Zm0,3.7207031h-2.4199219v2.5605469h2.4199219v-2.5605469Z"/>
        <path class="cls-2" d="m379.8901367,84.2753906c2.1005859-2.3007812,3.4208984-5.2011719,3.4208984-8.4824219,0-3.4599609-1.4199219-6.28125-3.4208984-8.5009766l1.0009766-.9003906c2.5800781,2.4804688,4.0800781,5.3212891,4.0800781,9.4013672,0,3.7412109-1.2001953,6.6621094-4.0800781,9.4023438l-1.0009766-.9199219Z"/>
      </g>
      <g>
        <path class="cls-3" d="m.6401367,48.6621094v-1.7998047h7.4013672v-3.0810547H3.2402344v-1.7597656h4.8012695v-2.7412109H2.8203125v-1.1796875c-.4799805.2597656-1.2402344.6396484-1.800293.8798828l-1.0200195-1.9003906c5.4208984-2.0605469,8.2416992-5.7412109,8.2416992-5.7412109h1.5800781s3.2807617,3.5810547,8.3417969,5.4814453l-1.0600586,1.9003906c-.4799805-.2207031-1.2802734-.640625-1.7202148-.9003906v1.4599609h-5.2612305v2.7412109h4.7407227v1.7597656h-4.7407227v3.0810547h7.4013672v1.7998047H.6401367Zm14.1625977-11.1621094c-3.4804688-2.0605469-5.6811523-4.3408203-5.6811523-4.3408203,0,0-1.8603516,2.1806641-5.3007812,4.3408203h10.9819336Z"/>
        <g>
          <path class="cls-2" d="m110.3452148,48.4423828v1h-1.9804688v-17.2636719h16.0234375v1.8007812h-14.0429688v12.6630859h14.8232422v1.7998047h-14.8232422Zm11.2626953-2.9003906s-1.5009766-1.7607422-3.8007812-4.0009766c-2.7412109,2.8808594-5.3417969,4.3808594-5.3417969,4.3808594l-1.3398438-1.5205078s2.8203125-1.3798828,5.3212891-4.1601562c-1.3203125-1.2402344-2.8408203-2.4013672-4.4208984-3.6416016l1.3798828-1.2792969c1.5800781,1.2001953,2.9609375,2.3603516,4.2607422,3.5205078,1.0400391-1.2402344,1.9208984-2.6611328,2.6005859-4.28125l1.8203125.7197266c-.8203125,1.9003906-1.9599609,3.5214844-3.1005859,4.8818359,2.4404297,2.3203125,4.0410156,4.0410156,4.0410156,4.0410156l-1.4199219,1.3398438Z"/>
          <path class="cls-2" d="m134.1254883,44.9414062v-9.4814453h3.9609375v-1.640625h-7.3417969v-1.7001953h16.7636719v1.7001953h-7.4619141v1.640625h4.0810547v9.4814453h-10.0019531Zm11.3027344,4.5009766v-1.1796875h-12.6035156v1.1796875h-1.8798828v-12.7226562h1.8798828v9.8427734h12.6035156v-9.8427734h1.8798828v12.7226562h-1.8798828Zm-7.2421875-12.3818359h-2.3007812v2.3203125h2.3007812v-2.3203125Zm0,3.7207031h-2.3007812v2.5605469h2.3007812v-2.5605469Zm4.1806641-3.7207031h-2.4199219v2.3203125h2.4199219v-2.3203125Zm0,3.7207031h-2.4199219v2.5605469h2.4199219v-2.5605469Z"/>
          <path class="cls-2" d="m161.605957,46.4824219c4.3017578-.0800781,6.5820312-3.28125,6.5820312-6.3613281,0-2.5810547-1.6201172-5.0615234-5.0410156-5.4609375-.5400391,3.5-2.0605469,8.8613281-3.5410156,11.0615234-.8798828,1.3007812-2.0605469,2.0009766-3.2001953,2.0009766-2.5410156,0-3.5214844-3.2207031-3.5214844-5.6816406,0-4.3203125,2.8212891-9.0820312,9.0419922-9.28125h.3798828c5.3212891,0,8.0224609,3.7402344,8.0224609,7.6015625,0,3.6806641-2.4609375,7.4414062-7.4824219,8.1611328l-1.2402344-2.0400391Zm-6.7011719-4.6611328c0,.3398438.2001953,3.6005859,1.6601562,3.6005859,1.8808594,0,4.0009766-7.4414062,4.4013672-10.7822266-3.9003906.5400391-6.0615234,3.9609375-6.0615234,7.1816406Z"/>
          <path class="cls-2" d="m191.9682617,49.4423828c-3.8613281-2.2998047-6.5019531-5.8603516-7.6816406-8.9814453-.9003906,3.3603516-3.8408203,6.9414062-7.9023438,8.9814453l-1.2597656-1.8798828c5.5214844-2.4804688,7.5019531-6.7617188,7.8613281-9.7021484h-7.4013672v-1.8408203h7.4814453v-4.5800781h2.0810547v4.5800781h7.5009766v1.8408203h-7.4013672s1.0800781,5.7412109,7.8818359,9.6416016l-1.1601562,1.9404297Z"/>
          <path class="cls-2" d="m197.6245117,48.7832031v-1.8007812h7.921875v-2.3408203h-6.2011719v-1.7402344h6.2011719v-1.1201172h2.0605469v1.1201172h6.28125v1.7402344h-6.28125v2.3408203h8.0214844v1.8007812h-18.0039062Zm6.6015625-7.5820312v-3.0205078h-2.1210938s-.1396484,2.7607422-2.7001953,3.8203125l-1.4804688-1.4599609c2.1005859-.6005859,2.2207031-2.3603516,2.2207031-2.3603516h-2.3007812v-1.6806641h2.5205078v-2.640625h-1.8398438v-1.6601562h9.5820312v1.6601562h-1.9208984v2.640625h2.4404297v1.6806641h-2.4404297v3.0205078h-1.9599609Zm0-7.3417969h-1.9404297v2.640625h1.9404297v-2.640625Zm5.2011719,4.8613281v-6.3017578h1.9599609v6.3017578h-1.9599609Zm1.2001953,1.1796875c2.3398438,0,2.3603516-.1396484,2.3603516-.7001953v-7.5615234h1.9599609v7.5419922c0,1.9599609-.4199219,2.4208984-3.6201172,2.6201172l-.7001953-1.9003906Z"/>
          <path class="cls-2" d="m220.1645508,38.2207031c2.9404297-1.7001953,4.6210938-3.5410156,5.8212891-6.7617188l1.7998047.7597656c-1.2197266,3.3212891-2.7998047,5.6015625-6.1210938,7.7216797l-1.5-1.7197266Zm9.1621094,9.0019531c3.6601562,0,3.6806641-.3408203,3.6806641-2.0410156v-4.7402344h-3.9804688c-.1601562,1.9003906-1.140625,7.0605469-6.7216797,9.0009766l-1.1806641-1.8398438c4.8212891-1.3798828,5.7011719-5.0615234,5.8017578-7.1611328h-3.3613281v-1.8007812h11.4628906v5.5615234c0,3.8603516-.2197266,4.8007812-4.8808594,4.9208984l-.8203125-1.9003906Zm7.28125-7.421875c-2.7802734-2.1005859-4.7011719-4.1210938-6.1015625-7.5820312l1.7207031-.7597656c1.3603516,3.0605469,3.1210938,5.0009766,5.8808594,6.6416016l-1.5,1.7001953Z"/>
          <path class="cls-2" d="m242.6245117,36.3798828v-1.6005859h6.7617188v1.6005859h-6.7617188Zm2.4609375,12.3027344v.7597656h-1.8212891v-6.3007812h5.6220703v5.5410156h-3.8007812Zm-1.5810547-15.1630859v-1.5h5.1210938v1.5h-5.1210938Zm0,8.3212891v-1.4599609h5.1210938v1.4599609h-5.1210938Zm.0205078-2.7001953v-1.4599609h5.1005859v1.4599609h-5.1005859Zm3.5009766,5.4814453h-1.9404297v2.3603516h1.9404297v-2.3603516Zm12.3417969,4.8007812c-3.2802734-2.0400391-4.1601562-5.1806641-4.3808594-6.0214844h-.7402344c-.1992188.2998047-.5195312.6806641-.8193359.9599609v2.9414062c.7792969-.1601562,1.5195312-.3603516,2.2998047-.6201172l.0800781,1.5996094c-2.1005859.7802734-5.4414062,1.140625-5.4414062,1.140625l-.4394531-1.6806641s.6601562-.0400391,1.6005859-.1601562v-1.8603516c-.9609375.6005859-1.7207031,1.0009766-1.7207031,1.0009766l-.8398438-1.6611328c1.3798828-.3994141,2.5-.9794922,3.2597656-1.6601562h-2.9404297v-1.5h2.5810547v-1.3007812h-1.9003906v-1.2597656h1.9003906v-1.1806641h-2.140625v-1.3398438h2.140625v-1.2207031c-.4599609.3808594-.9804688.7001953-.9804688.7001953l-1.2597656-1.0996094s1.1201172-.5605469,1.6796875-1.1005859h-1.7402344v-1.5800781h4.2011719v-1.0800781h1.9404297v1.0800781h4.5410156v1.5800781h-1.640625c.5.5,1.4804688.9804688,1.4804688.9804688l-1.1601562,1.2597656s-1.1601562-.7802734-2.1005859-1.7001953l.6796875-.5400391h-5.3203125l.7197266.5996094c-.2402344.3007812-.6201172.6005859-.9199219.8408203h1.7197266v1.2802734h2.28125v-1.2607422h1.8398438v1.2607422h2.1201172v1.3398438h-2.1201172v1.1806641h1.7001953v1.2597656h-1.7001953v1.3007812h2.640625v1.5h-3.6806641c.1201172.4599609.3603516,1,.6601562,1.5205078.4404297-.3203125.9199219-.8798828,1.1601562-1.2802734l1.5400391.9003906c-.4199219.5996094-1.2001953,1.3203125-1.7402344,1.7001953.4599609.4804688,1.3203125,1.0800781,2.2001953,1.4404297l-1.2402344,1.7402344Zm-3.3798828-11.2626953h-2.28125v1.1806641h2.28125v-1.1806641Zm0,2.4404297h-2.28125v1.3007812h2.28125v-1.3007812Z"/>
          <path class="cls-2" d="m271.3657227,45.2421875s-1.8603516.9394531-5.6806641,2.2402344l-.5205078-2c.7998047-.2001953,1.5605469-.5009766,2.2402344-.7402344v-6.2421875h-1.7998047v-1.7998047h1.7998047v-4.6806641h1.9208984v4.6806641h1.8398438v1.7998047h-1.8398438v5.6621094c1.4199219-.5800781,2.0400391-.9208984,2.0400391-.9208984v2.0009766Zm3.4003906,3.6601562s-1.7998047,0-1.7998047-1.7802734v-8.8613281l-1.2802734.2392578v-1.8798828l1.2802734-.2402344v-3.6611328h1.9003906v3.3408203l1.7001953-.3398438v-4.2802734h1.8603516v3.9404297l3.8007812-.7402344v6.1416016c0,1.8798828-.4003906,2.2998047-2.7607422,2.4199219l-.5996094-1.7597656c1.4599609,0,1.4599609-.0800781,1.4599609-.8603516v-3.7207031l-1.9003906.3603516v6.9609375h-1.8603516v-6.6416016l-1.7001953.3408203v8.5214844c0,.7197266.7998047.7001953.7998047.7001953h3.5009766c1.5800781,0,1.9404297-.0205078,1.9404297-2.8808594l1.9804688,1.1806641c0,2.8398438-1.2802734,3.5-2.9003906,3.5h-5.421875Z"/>
          <path class="cls-2" d="m287.3041992,48.5429688l17.5244141-17.5244141,1.1201172,1.1201172-17.5039062,17.5439453-1.140625-1.1396484Z"/>
        </g>
        <g>
          <path class="cls-4" d="m36.0493164,16.7392578h-8.9423828c.2402344-5.1972656,1.8730469-9.2871094,4.8974609-12.2675781S38.9106445,0,43.6489258,0c2.9267578,0,5.5087891.6171875,7.7470703,1.8515625,2.2382812,1.2333984,4.0292969,3.0126953,5.3720703,5.3388672,1.34375,2.3251953,2.0146484,4.6894531,2.0146484,7.0917969,0,2.8613281-.8144531,5.9404297-2.4414062,9.2373047-1.6279297,3.2978516-4.6044922,7.1953125-8.9306641,11.6943359l-5.4072266,5.6992188h17.1728516v8.484375H25.7973633v-4.3896484l14.9042969-15.1992188c3.6025391-3.6464844,5.9990234-6.578125,7.1894531-8.7949219,1.1904297-2.2158203,1.7851562-4.2197266,1.7851562-6.0107422,0-1.8564453-.6171875-3.390625-1.8505859-4.6025391-1.234375-1.2119141-2.8222656-1.8173828-4.765625-1.8173828-1.9658203,0-3.6035156.7314453-4.9140625,2.1943359-1.3095703,1.4628906-2.0087891,3.4501953-2.0966797,5.9619141Z"/>
          <path class="cls-4" d="m84.5024414,0h9.1416016v31.0205078h4.2910156v8.484375h-4.2910156v9.8925781h-8.9755859v-9.8925781h-21.0292969v-8.484375L84.5024414,0Zm.1660156,31.0205078V14.8720703l-11.0058594,16.1484375h11.0058594Z"/>
        </g>
        <g>
          <path class="cls-2" d="m354.6430664,48.3466797s.3964844-2.8388672.3964844-5.5673828l1.3203125.0664062c0,2.8828125-.2207031,5.7646484-.2207031,5.7646484l-1.4960938-.2636719Zm4.2246094-1.2988281c1.6064453,0,2.3330078-.0214844,2.5966797-1.671875l-.9462891.2861328s-.2421875-1.2539062-.7919922-2.8603516l1.0117188-.3300781c.3085938.9023438.6386719,1.9140625.7929688,2.6181641.0654297-.7041016.0878906-1.9365234.0878906-3.1464844h-6.46875v-11.9033203h8.2285156v1.7597656h-2.5302734v1.6289062h1.9140625v1.5615234h-1.9140625v1.7382812h1.9140625v1.5625h-1.9140625v1.8261719h2.7509766c-.0888672,6.4033203-.0664062,8.8017578-3.9394531,8.9335938l-.7919922-2.0029297Zm-1.9140625-.0214844s-.0214844-1.7382812-.3076172-3.71875l1.078125-.1757812c.3955078,2.3544922.5273438,3.7626953.5273438,3.7626953l-1.2978516.1318359Zm1.9804688-15.2265625h-1.7822266v1.6289062h1.7822266v-1.6289062Zm0,3.1904297h-1.7822266v1.7382812h1.7822266v-1.7382812Zm0,3.3007812h-1.7822266v1.8261719h1.7822266v-1.8261719Zm-.0878906,8.1630859s-.2421875-1.7382812-.5947266-3.3662109l1.0341797-.2207031c.484375,1.7382812.7929688,3.3447266.7929688,3.3447266l-1.2324219.2421875Zm13.7734375,2.7285156s-2.7060547-3.5429688-3.6738281-10.6933594h-2.0908203v.5722656c0,3.6083984-.3515625,7.2822266-1.8701172,10.1210938l-1.9365234-1.7607422c1.4306641-2.5078125,1.6064453-6.1601562,1.6064453-8.3603516v-8.9560547h9.2197266v8.3837891h-2.7070312c.6601562,5.984375,3.3447266,9.1748047,3.3447266,9.1748047l-1.8925781,1.5185547Zm-.8798828-17.2060547h-4.8847656v4.6425781h4.8847656v-4.6425781Z"/>
          <path class="cls-2" d="m384.2338867,49.1826172v-10.671875c-.4619141,2.0908203-1.6503906,4.9287109-3.5205078,7.0634766l-1.3417969-2.2666016c1.8476562-1.8486328,3.3886719-4.8623047,3.7402344-6.1826172h-3.2119141v-1.8925781h4.3339844v-2.9482422c-1.0556641.1103516-2.2001953.2197266-3.5644531.3076172l-.7041016-1.9794922c3.5429688-.0888672,7.0195312-.5507812,9.2197266-1.1884766l.7480469,1.8476562s-1.1884766.3964844-3.5644531.7490234v3.2119141h4.0039062v1.8925781h-2.8603516c.96875,2.2880859,2.8828125,4.4228516,2.8828125,4.4228516l-1.4521484,2.1777344s-1.7382812-2.2666016-2.5742188-5.3466797v10.8037109h-2.1347656Zm7.3496094-5.1269531v-13.1572266h2.2001953v13.1572266h-2.2001953Zm1.5175781,2.7949219c2.5087891,0,2.8828125-.0224609,2.8828125-.5722656v-16.8984375h2.2001953v16.8984375c0,2.3759766-1.6943359,2.6621094-4.2021484,2.6621094l-.8808594-2.0898438Z"/>
          <path class="cls-2" d="m417.5649414,46.8945312c.4179688.0214844.7705078.0214844,1.0566406.0214844,1.6503906,0,1.7158203-.2421875,1.7158203-.59375v-3.9169922h-5.2587891v5.9853516h-2.2001953v-5.9853516h-5.1044922c-.1982422,2.4208984-.6816406,4.9951172-1.8701172,6.7998047l-1.7382812-1.6064453c1.4960938-2.2226562,1.5400391-6.9970703,1.5400391-9.5273438v-8.0537109l16.8320312.0224609v16.3701172c0,1.7822266-.4619141,2.6621094-4.0917969,2.6621094l-.8808594-2.1777344Zm-4.6865234-9.6601562h-4.9726562s-.0214844,2.1572266-.0214844,3.1914062h4.9941406v-3.1914062Zm0-5.2363281h-4.9726562v3.2568359h4.9726562v-3.2568359Zm7.4589844.0224609h-5.2587891v3.234375h5.2587891v-3.234375Zm0,5.2138672h-5.2587891v3.1914062h5.2587891v-3.1914062Z"/>
          <path class="cls-2" d="m443.3276367,32.1962891h-14.2802734v-1.9804688h19.4511719v1.9804688h-3.0146484v13.9716797c0,1.9804688-.6601562,2.9267578-5.3466797,2.9267578l-.9462891-1.9804688c3.9609375,0,4.1367188-.1757812,4.1367188-.9462891v-13.9716797Zm-9.9453125,11.4199219v2.15625h-2.15625v-10.5839844h9.21875v8.4277344h-7.0625Zm4.90625-6.4472656h-4.90625v4.4667969h4.90625v-4.4667969Z"/>
        </g>
        <path class="cls-4" d="m325.128418,13.1025391h-8.8115234c.4580078-3.5585938,1.7363281-6.4199219,3.8320312-8.5820312,2.9267578-3.0136719,6.6054688-4.5205078,11.0390625-4.5205078,3.9521484,0,7.2666016,1.2558594,9.9414062,3.7675781s4.0126953,5.4921875,4.0126953,8.9423828c0,2.140625-.5839844,4.0947266-1.7519531,5.8632812-1.1689453,1.7685547-2.8662109,3.1992188-5.09375,4.2910156,2.9257812.8740234,5.2138672,2.3974609,6.8623047,4.5693359,1.6484375,2.1738281,2.4736328,4.7333984,2.4736328,7.6816406,0,4.3242188-1.5947266,7.9873047-4.7832031,10.9902344s-7.25,4.5039062-12.1845703,4.5039062c-4.6738281,0-8.484375-1.4140625-11.4326172-4.2421875s-4.5644531-6.6767578-4.8476562-11.546875h9.0732422c.3935547,2.4902344,1.2617188,4.3408203,2.6044922,5.5527344s3.0410156,1.8173828,5.09375,1.8173828c2.1396484,0,3.9140625-.6875,5.3222656-2.0634766,1.4091797-1.3759766,2.1132812-3.0566406,2.1132812-5.0439453,0-2.1835938-.9501953-4.0292969-2.8496094-5.5361328-1.9003906-1.5068359-4.640625-2.2822266-8.2226562-2.3261719v-7.8613281c2.2060547-.1748047,3.8496094-.5185547,4.9306641-1.03125,1.0810547-.5136719,1.9208984-1.2177734,2.5214844-2.1132812s.9013672-1.8447266.9013672-2.8496094c0-1.3105469-.4589844-2.3964844-1.3759766-3.2597656-.9169922-.8623047-2.1181641-1.2939453-3.6035156-1.2939453-1.3095703,0-2.5.3994141-3.5703125,1.1962891s-1.8017578,1.8291016-2.1943359,3.0947266Z"/>
      </g>
      <line class="cls-1" x1=".3518177" y1="58.3007231" x2="451.2487679" y2="58.3007231"/>
    </g>
  </g>
</svg>