<?xml version="1.0" encoding="UTF-8"?>
<svg id="_レイヤー_2" data-name="レイヤー 2" xmlns="http://www.w3.org/2000/svg" viewBox="0 0 262.8600874 82.6261924">
  <defs>
    <style>
      .cls-1 {
        fill: #1e2973;
      }

      .cls-1, .cls-2, .cls-3 {
        stroke-width: 0px;
      }

      .cls-3 {
        fill: #d70012;
      }
    </style>
  </defs>
  <g id="_レイヤー_1-2" data-name="レイヤー 1">
    <g>
      <path class="cls-1" d="m18.3553251,30.5735084h2.977275c.9626265,0,2.1970965.1609118,2.1970965,1.3120814v10.3543746s-3.3490788,1.2292445-9.3991195,1.2292445c-6.0467899,0-14.1305771-3.3295743-14.1305771-12.551528,0-9.2162649,8.4332422-12.803867,14.6620737-12.803867,2.8118934,0,6.3174143.1657879,6.3174143,1.7436177v3.0784543c-2.3665415-1.9309418-3.3271363-2.2889875-6.9228653-2.2889875-3.6103574,0-10.0671473,2.3625355-10.0671473,10.0619221,0,7.659565,8.6575435,12.2333614,15.8656616,9.3385741v-5.8774019c0-1.2327874-.0975223-3.5964844-1.4998119-3.5964844Z"/>
      <path class="cls-1" d="m63.5695148,42.8418154h7.6290894c-2.1016059-.7895244-2.977275-3.3263235-3.6839055-5.1747777-.7102875-1.8354512-6.2345203-15.2683371-6.8363143-17.1123215-.6273936-1.8391083-1.490466-1.8391083-2.2100995-1.8391083h-4.368187c2.0975425.7058177.941903,2.1970964.5924481,3.2478419-.3441725,1.0459843-7.7119834,19.3131325-7.7119834,19.3131325-2.5506149-.7017543-8.9724593-10.0968101-8.9724593-10.0968101,8.5141045-2.4498418,7.2150259-12.4641642-1.1300398-12.4641642h-9.5685645c1.935818.4364123,1.7610905,2.4632511,1.7610905,4.0410808v16.5840756c0,2.2763333-.7050051,2.8992001-1.8439844,3.501051h7.0146989c-1.9268784-.8724184-1.4132609-2.8947873-1.4132609-3.8578202v-17.8925h3.7850849c2.0280578,0,3.509178,2.4591877,3.509178,4.1280382,0,2.7033998-2.1142025,3.7631422-4.2064625,4.5481969-2.1146089.7883054-.967909,2.5457387,0,3.9451839.9622202,1.4083847,3.7667994,5.3657019,5.448653,7.2979197,1.6615364,1.9313481,3.1556596,1.8309814,3.9415269,1.8309814h6.317008c-2.4453721-.7801785-1.1336969-2.7021807-.7891181-3.6700897.3588009-.9727851,1.9321609-5.0971662,1.9321609-5.0971662h9.4783563s1.1462935,2.9772749,2.1970965,5.6233804c1.0638059,2.6200995.2519326,2.9736179-.872012,3.1438756Zm-9.8359382-11.5754922l3.595729-9.3901797,3.8679788,9.3901797h-7.4637079Z"/>
      <path class="cls-1" d="m140.4426987,42.8418154h7.6514383c-2.1198913-.7895244-2.990278-3.3263235-3.6875625-5.1747777-.6976909-1.8354512-6.2361457-15.2683371-6.8452538-17.1123215-.6204857-1.8391083-1.4831519-1.8391083-2.2027853-1.8391083h-4.3795646c2.118266.7058177.9626265,2.1970964.605451,3.2478419-.349455,1.0459843-7.7249864,19.3131325-7.7249864,19.3131325-.4892369,1.1466999-1.2088704,1.1637663-1.6615364,1.5652331h6.3210714c-2.4587814-.7801785-1.1430428-2.7021807-.7931815-3.6700897.3478296-.9727851,1.939475-5.0971662,1.939475-5.0971662h9.4746993s1.1556394,2.9772749,2.2044107,5.6233804c1.0471459,2.6200995.2539644,2.9736179-.9016751,3.1438756Zm-9.81684-11.5754922l3.595729-9.3901797,3.8586329,9.3901797h-7.454362Z"/>
      <path class="cls-1" d="m113.4444585,43.2908244c.8756691-.7931815,1.6688506-1.4125051,1.6688506-4.2122083v-16.588082c0-1.3116751-.1011794-2.8163631-1.6688506-3.3385138h6.7440744c-.6972846.6225174-1.5311003,1.4026959-1.5311003,3.1686625v16.7579334c0,1.4962119-.3055699,3.694121,1.630248,4.2122083h-6.8432221Z"/>
      <path class="cls-1" d="m77.0796062,24.3263916s-.0865511,13.2487554-.0865511,14.7522245c0,1.4962119.1783846,3.694121,2.1089201,4.2122083h-6.4129049c.8943609-.7931815,1.5786425-1.4125051,1.5786425-4.2122083,0-2.8024904.1877305-15.2841274.1877305-16.588082,0-1.3116751-.1877305-2.8163631-1.7663729-3.3385138h4.9313784l14.7360282,18.5150174v-15.0842637c0-.9723787.1783846-2.8082363-1.8403274-3.5099906h6.5786928c-.7801785.6013876-1.9415068.872012-1.9415068,3.4177507v21.7763261s-1.8309815.3360456-4.8082565-3.2560262c-2.9939351-3.5920719-13.2654729-16.6844423-13.2654729-16.6844423Z"/>
      <path class="cls-3" d="m119.0235476,61.9765058c-19.3008852-16.2704357-26.6890133-35.4180723-.2868781-61.5455188.828127-.8277206,1.6119626-.3356393.9622202.4051239-11.5706163,13.2320948-24.4793201,34.3928689-.2649356,60.3342105.3754609.392121.2356789,1.2551934-.4104064.8061845Z"/>
    </g>
    <g>
      <path class="cls-2" d="m169.4983931,26.2325767h-2.0189209v.5297241c.6097412.1099243,1.4093018.3997803,1.4093018.9295044,0,.2998047-.2099609.3497925-.3099365.3497925-.1898193,0-.2198486-.0599976-.4196777-.4297485-.0799561-.1599121-.3398438-.5897217-.6796875-.7196045.0100098.3198242.0699463,2.0988159.0699463,2.2987061,0,.2298584-.0299072.3198242-.0899658.369812-.0799561.0699463-.2098389.1199341-.3297119.1199341-.2199707,0-.2199707-.1499023-.2199707-.2298584,0-.0599976.0500488-.6496582.0600586-.7796021.0299072-.4397583.0599365-1.2293091.0599365-1.9589233-.4498291.7095947-1.5792236,1.848999-2.3087158,2.1088867l-.0300293-.0499878c.9794922-.8695679,1.6391602-1.848999,2.0388184-2.5386353h-.1697998c-.3198242,0-.8795166.039978-1.2893066.1199341l-.2298584-.4297485c.5496826.039978,1.0993652.0699463,1.6590576.0699463h.329834c-.0400391-.9294434-.0500488-1.0294189-.0899658-1.3692627l.7296143.2098999c.039917.0100098.1398926.0499878.1398926.1399536,0,.0799561-.1298828.1599121-.2799072.2498779-.0198975.1998291-.039917.3397827-.0499268.7695312h1.1494141l.2098389-.2798462c.0799561-.0999146.1099854-.1398926.1599121-.1398926.0599365,0,.1499023.0699463.1899414.0999146l.3597412.2998657c.0500488.039978.0999756.0799561.0999756.1599121,0,.0899048-.0799561.0999146-.1499023.0999146Zm.1699219-1.6890869h-3.2382812c-.3098145,0-.8695068.0300293-1.2792969.1099854l-.2398682-.4298096c.5496826.0499878,1.109375.0799561,1.6590576.0799561h1.0195312c.1499023-.3397827.3398438-.8594971.3997803-1.0493774.1298828-.3798218.1798096-.6296997.1499023-.9495239l.8195801.4497681c.0499268.0299683.0599365.0799561.0599365.1199341,0,.1799316-.1999512.1799316-.3398438.1799316-.329834.40979-.659668.8395386-.9694824,1.2492676h1.0794678l.2298584-.2897949c.0300293-.039978.0999756-.1199341.1499023-.1199341.0599365,0,.1398926.0699463.1799316.0999146l.369751.289856c.0499268.039978.0999756.0799561.0999756.1499023,0,.0899658-.0799561.1099243-.1499023.1099243Zm-.1699219-2.4086304h-2.7385254c-.3098145,0-.8795166.0299683-1.2792969.1099243l-.2398682-.4297485c.5496826.0499878,1.109375.0799561,1.6590576.0799561h.2398682c.0100098-.2598877.0200195-.7695923-.1398926-1.3493042l.8594971.2398682c.0700684.0200195.1300049.0599976.1300049.1399536,0,.0899658-.1899414.2398682-.3198242.3497925-.0100098.0799561-.0300293.40979-.0400391.6196899h.9494629l.289917-.289856c.0998535-.0999756.119873-.1199341.1599121-.1199341.0599365,0,.1298828.0599976.1799316.0999146l.3397217.289856c.0599365.0499878.0999756.0799561.0999756.1499634,0,.0899048-.0799561.1099243-.1499023.1099243Zm-2.7984619,1.8789673c-.2698975,0-.2998047-.2098999-.3797607-.6496582-.0799561-.4197998-.1199951-.5797119-.3398438-.8695068l.0599365-.039978c.4997559.289856.9694824.6296387.9694824,1.1693726,0,.0599365,0,.3897705-.3098145.3897705Zm7.2659912.1398926h-1.5991211c0,.0799561.0400391,2.6685791.0400391,2.9884033,0,.0699463.0699463,2.0188599.0699463,2.1088257,0,.3497925-.369873.4397583-.4797363.4397583-.2199707,0-.2298584-.1799316-.2298584-.2498779,0-.1699219.0499268-1.0194092.0599365-1.2093506.039917-1.5091553.039917-2.6485596.039917-2.878418,0-.3897705-.0100098-.8095703-.0299072-1.1993408h-1.2093506c0,2.6985474-.5496826,4.4176025-2.1688232,5.2670898l-.0400391-.039917c1.2493896-1.2792969,1.6890869-2.3287354,1.6890869-5.7468872,0-.7995605-.0200195-1.5991211-.039917-1.9089355-.0200195-.2398682-.0599365-.4397583-.0999756-.5996704l.7995605.3897705c.3997803-.1099243.7895508-.2598267,1.1594238-.4197388.2998047-.1299438.5595703-.3398438.7294922-.5197144l.6796875.5996704c.0499268.0499878.0599365.0699463.0599365.1099243,0,.0599365-.039917.1099243-.1499023.1099243-.0599365,0-.0799561,0-.3997803-.0699463-.4298096.1299438-1.6490479.289856-2.1987305.3598022-.0400391.6196289-.0100098,1.6091309-.0200195,2.2287598h2.3786621l.2498779-.3797607c.0299072-.039978.0999756-.1399536.1699219-.1399536.039917,0,.0799561.0200195.1898193.1199341l.3997803.3598022c.0200195.0200195.0999756.1099243.0999756.1699219,0,.1099243-.0999756.1099243-.1499023.1099243Z"/>
      <path class="cls-2" d="m184.6662397,22.0648521h-7.2060547v2.1188965c0,3.0283203-.739624,4.0377197-1.4492188,4.9272461l-.0799561-.0599365c.9594727-1.6390991.9794922-3.1483154.9794922-5.7168579,0-.6096802,0-1.3792725-.1199951-1.8290405l.7696533.3198242h2.7185059c.0200195-.819519-.0600586-.9993896-.1398926-1.1993408l.8094482.1799316c.1099854.0200195.1599121.039978.1599121.1199341,0,.1199341-.1998291.2199097-.2998047.2798462v.6196289h2.62854l.3897705-.4996948c.0500488-.0699463.0999756-.1299438.1599121-.1299438.0400391,0,.0899658.0300293.1799316.1099854l.5596924.4996948c.0100098.0100098.0899658.0799561.0899658.1599121,0,.0899658-.0799561.0999146-.1499023.0999146Zm.2797852,7.1860962h-6.4163818c-.3498535,0-.9095459.039978-1.2893066.1199341l-.2298584-.4298096c.7495117.0599976,1.4691162.0700073,1.6590576.0700073h1.9289551v-1.9189453h-.7596436c-.3497314,0-.8995361.039978-1.2792969.1099243l-.2398682-.4297485c.7496338.0599365,1.479248.0799561,1.6591797.0799561h.6196289c0-.9994507,0-1.7990112-.0400391-3.2382202-.0100098-.4298096-.0299072-.5797119-.1499023-.9594727l.779541.1998901c.1999512.0499878.2099609.0999146.2099609.1499023,0,.1099243-.1300049.1898804-.3098145.2798462v2.9783936c0,.0999146.0100098.4996948.0100098.5896606h1.6690674l.2398682-.3497925c.0299072-.0400391.0898438-.1299438.1599121-.1299438.039917,0,.0898438.0299683.1798096.0999146l.4997559.3598022c.0300293.0200195.0999756.0799561.0999756.1499634,0,.0899048-.0899658.1099243-.1499023.1099243h-2.6984863c0,.2098999.0098877,1.6190796.0098877,1.9189453h2.6685791l.329834-.4797363c.0200195-.039978.0899658-.1399536.1599121-.1399536.0599365,0,.1699219.0899658.1699219.0999756l.5697021.4996948c.0599365.0599976.0998535.0899658.0998535.1499634,0,.0999146-.0899658.1099243-.1599121.1099243Zm-5.097168-2.9883423c-.1599121,0-.2797852-.0799561-.4396973-.4597778-.1899414-.4397583-.289917-.6896362-.5496826-.9094849-.2799072.4797363-.5697021.8994751-1.1994629,1.5791016l-.0699463-.0699463c.6097412-.9494629,1.3293457-2.7784424,1.3293457-3.1982422,0-.0699463-.0200195-.1599121-.0200195-.2098999l.739624.369812c.0799561.039978.1599121.0799561.1599121.1599121,0,.1398926-.1099854.1398926-.3598633.1499023-.1298828.3198242-.2797852.6696777-.5196533,1.109375.4897461.2398682,1.2093506.5897217,1.2093506,1.1494141,0,.0899658-.0600586.329834-.2799072.329834Zm4.4775391.0199585c-.1799316,0-.1998291-.039978-.5096436-.5097046-.1300049-.2098999-.4797363-.7196045-.8796387-.9594727-.3597412.5996704-.779541,1.149353-1.2991943,1.6091309l-.0699463-.0599976c.3997803-.5097046.7995605-1.1893311,1.229248-2.3886719.2199707-.5996704.2199707-.8395386.2298584-1.109436l.8095703.4298096c.0899658.0499268.1499023.0799561.1499023.1398926,0,.1399536-.1697998.1699219-.4697266.2298584-.0799561.1999512-.1798096.4697876-.5296631,1.069458.1298828.0299683.449707.1499023.739624.2897949.7296143.3598633.9094238.6196899.9094238.8895264,0,.0599976-.0299072.369812-.3098145.369812Z"/>
      <path class="cls-2" d="m196.2360639,22.5246299h-4.727417l.7895508.2498779c.0500488.0199585.1298828.0599365.1298828.1299438,0,.0899048-.1499023.1998291-.2897949.3098145-.0300293.3897705-.039917.6296387-.0499268,1.0093994h2.1688232l.2597656-.2598267c.0200195-.0199585.0999756-.0999146.1599121-.0999146.0500488,0,.1499023.0899048.1699219.0999146l.2398682.2098999c.1599121.1398926.1699219.1499023.1699219.2098389,0,.0899658-.1499023.2098999-.2498779.2799072-.0100098.2698364.0500488,2.7185059.0500488,3.2381592,0,.2998657-.0200195.4697876-.2799072.699646-.2797852.2498779-.5296631.2998657-.699585.329834-.0799561-.1898804-.2099609-.4997559-.7995605-.7595825v-.0799561c.1699219.0199585.3098145.039978.5895996.039978.6097412,0,.6097412-.1099243.619751-.2498779.0100098-.3997803,0-1.439209,0-2.1987915v-1.2193604h-2.3986816c0,1.109436,0,1.5791626.0499268,3.4781494,0,.2098389.0400391,1.1693115.0400391,1.3692017,0,.369812-.3997803.4497681-.4697266.4497681-.2299805,0-.2299805-.1499023-.2299805-.3997803,0-.0299683.0899658-1.7990112.0899658-2.1288452.0100098-.8495483.0100098-1.848938,0-2.7684937h-2.1987305v.1299438l-.0100098,1.9489136.039917,1.809021c.0100098.2398682,0,.5297241-.4196777.5297241-.2299805,0-.2299805-.1398926-.2299805-.2098999,0-.0899048.0200195-.4896851.0300293-.5696411.0300293-.8495483.0500488-1.7091064.0500488-2.5585938,0-1.02948-.0300293-1.2593384-.1199951-1.7091064l.8494873.3897705h2.0089111c-.0100098-1.1993408-.0100098-1.2892456-.0999756-1.6990356h-2.6584473c-.3498535,0-.8995361.039978-1.2792969.1099243l-.2398682-.4297485c.7495117.0599976,1.479126.0799561,1.6590576.0799561h2.62854c0-1.149353-.0599365-1.4092407-.2598877-1.7190552l.9694824.1998901c.1099854.0199585.2099609.0499878.2099609.1499023,0,.0999756-.1799316.1998901-.369873.3198242-.0100098.5497437-.0100098.7695923,0,1.0494385h2.9084473l.3797607-.4797363c.0599365-.0699463.0999756-.1199341.1599121-.1199341s.1699219.0899658.1799316.0999756l.5396729.4797363c.0599365.0499268.0999756.0899048.0999756.1499023,0,.0899658-.0899658.1099243-.1599121.1099243Z"/>
      <path class="cls-2" d="m165.6605024,42.2894004c-.1298828.2498169-.1599121.3098145-.2598877.3098145-.0699463,0-.0999756-.0699463-.1298828-.1499023l-.329834-.8195801c.1599121.0100098.4298096.039978.5697021.039978.4196777,0,.9694824-.0599365,1.3891602-.1099243v-1.3592529h-.3198242c-.3497314,0-.9094238.039978-1.2893066.1199341l-.2298584-.4397583c.7496338.0699463,1.4692383.0799561,1.6591797.0799561h.1798096v-1.4092407h-1.0893555c.0200195.3598022-.3598633.3997803-.3997803.3997803-.1699219,0-.1699219-.1199341-.1699219-.2998047,0-.0599976,0-.0999756.0100098-.1899414.039917-.6096191.039917-1.5891113.039917-2.2287598,0-1.399231-.0098877-1.479187-.079834-1.8189697l.7695312.3598022h2.3886719l.2698975-.2398682c.0699463-.0700073.0899658-.0700073.119873-.0700073.0599365,0,.0899658.0300293.1398926.0700073l.3498535.289856c.039917.0299683.0899658.0799561.0899658.1298828,0,.0799561-.0300293.0999756-.3198242.2698975-.0100098.3597412-.0100098.5796509-.0100098.9993896,0,.5897217.0599365,1.5391846.0599365,2.138855,0,.4197388-.3897705.4197388-.40979.4197388-.1398926,0-.1398926-.0799561-.1298828-.2298584h-1.1693115v1.4092407h.9494629l.2998047-.3497925c.0999756-.1099854.1099854-.1199341.1599121-.1199341.0599365,0,.1398926.0699463.1899414.1199341l.3297119.329834c.0899658.0899048.0899658.1298828.0899658.1499023,0,.0899658-.0799561.1099243-.1499023.1099243h-1.8688965v1.2992554c1.229248-.1698608,1.7290039-.2698364,2.2387695-.3597412l.0299072.0599365c-.5196533.2098999-3.1882324.8895264-3.9677734,1.0894165Zm1.2392578-7.276001h-1.0893555v1.4591675h1.0893555v-1.4591675Zm0,1.6990356h-1.0893555v1.5991211h1.0893555v-1.5991211Zm1.6291504-1.6990356h-1.1693115v1.4591675h1.1693115v-1.4591675Zm0,1.6990356h-1.1693115v1.5991211h1.1693115v-1.5991211Zm4.8673096,1.2093506c-.0999756.0799561-.8795166.699585-1.2792969,1.0194092l-.0499268-.039917c.2398682-.3398438.6296387-1.0594482.6795654-1.3193359h-1.1993408c0,.9295044,0,2.3787231.0100098,3.2682495,0,.1398926.0300293.7995605.0300293.9494629,0,.5197144,0,.9694824-1.0594482,1.2293091-.0300293-.1298828-.0499268-.2398682-.2298584-.3897705-.1899414-.1699219-.4797363-.3398438-.9494629-.4997559v-.0499268c.4296875.0499268.8994141.0899658,1.1394043.0899658.3797607,0,.5396729-.0200195.5396729-.4398193v-4.1577148h-.4498291c-.1998291,0-.8095703.0200195-1.2893066.1099854l-.2298584-.4298096c.5197754.0400391,1.1394043.0799561,1.6591797.0799561h1.888916l.2998047-.2797852c.1099854-.0999756.1400146-.0999756.1599121-.0999756.0400391,0,.0799561.0200195.1699219.0999756l.6196289.5196533c.0400391.0400391.0699463.0899658.0699463.1399536,0,.1998901-.2298584.1998901-.5296631.1998901Zm-.8394775-2.7285156c-.40979.2998657-.4598389.3498535-1.3093262,1.0294189.1398926.0700073.5097656.2799072.5097656.6096802,0,.1998901-.1300049.369812-.3198242.369812-.1400146,0-.1599121-.0299683-.4697266-.4297485-.3498535-.4397583-.5197754-.6096802-.9594727-.8295288v-.0599976c.1798096.0100098.6895752.0599976,1.1292725.2798462.4698486-.6296387.6097412-.9394531.7496338-1.2592773h-.9194336c-.1999512,0-.8095703.0299683-1.2893066.119873l-.2299805-.4297485c.5097656.039978,1.1394043.0700073,1.6591797.0700073h.7595215l.3398438-.2698975c.0699463-.0599365.0799561-.0599365.1099854-.0599365.0499268,0,.0799561.0199585.1098633.039978l.5596924.4896851c.0500488.0400391.0799561.0899658.0799561.1399536,0,.1699219-.1699219.1798706-.5096436.1898804Z"/>
      <path class="cls-2" d="m184.9061079,37.6119712h-7.3959961c-.3497314,0-.8994141.039978-1.2792969.1199341l-.2398682-.4297485c.7496338.0599365,1.479248.0699463,1.6591797.0699463h2.5185547v-1.4992065h-1.7189941c-.3498535,0-.9095459.039978-1.2893066.1199341l-.2298584-.4297485c.7495117.0599976,1.4691162.0699463,1.6590576.0699463h1.5690918c-.0198975-1.0194092-.0198975-1.2393188-.2198486-1.7789917l1.0194092.2998047c.0999756.0300293.1999512.0499878.1999512.1699219,0,.0799561,0,.1398926-.40979.3598022,0,.2098999-.0100098.6396484-.0100098.9494629h2.0189209l.329834-.4297485c.0899658-.1199341.1098633-.1398926.1599121-.1398926.039917,0,.0899658.0299683.1798096.0999146l.5498047.4497681c.0499268.039978.0998535.0899658.0998535.1599121,0,.0899658-.0799561.0999146-.1499023.0999146h-3.1882324c-.0100098.2398682-.0100098.369812-.0100098,1.4992065h3.0583496l.2897949-.3997803c.0699463-.0899658.0999756-.1299438.1499023-.1299438.0500488,0,.1300049.0599976.1899414.0999146l.5496826.40979c.0499268.039978.0999756.0899658.0999756.1599121,0,.0899658-.0899658.0999756-.1599121.0999756Zm-.1199951,1.8589478h-2.4985352c.0098877.659668.0299072,1.7090454.0299072,2.3687134,0,.4397583-.0499268.6796265-.3198242.9194946-.119873.0999146-.3897705.3198242-.8394775.3897705-.0400391-.1798706-.0799561-.289856-.2498779-.4297485-.1099854-.0899658-.3997803-.3198242-.9594727-.5097046v-.0700073c.2897949.0100098.7095947.0400391,1.4091797.0400391.2598877,0,.40979-.0200195.40979-.369812-.0100098-1.3092651-.0100098-1.4492188-.0100098-2.3387451h-4.0577393c-.3498535,0-.8995361.039978-1.2792969.1099243l-.2398682-.4297485c.7496338.0599976,1.479126.0799561,1.6590576.0799561h3.9178467c0-.6796265,0-.9194946-.1298828-1.3792114l.739624.2098389c.0699463.0200195.2198486.0599976.2198486.1899414,0,.0999146-.0300293.1199341-.2998047.2897949-.0100098.1199951-.0100098.1799316,0,.6896362h1.3791504l.289917-.409729c.0899658-.1299438.1098633-.1299438.1599121-.1299438.0299072,0,.0599365.0099487.1898193.1099243l.5297852.40979c.0499268.039978.0999756.0899658.0999756.1499023,0,.0899658-.0899658.1099243-.1500244.1099243Zm-5.6068115,2.2587891c-.2498779,0-.2799072-.0599976-.4997559-.5797119-.1899414-.4397583-.4597168-.9194946-.8095703-1.1693726v-.0599365c.449707.1199341.8695068.3398438,1.2392578.6496582.3198242.2598267.4298096.4797363.4298096.7595825,0,.2098999-.1099854.3997803-.3597412.3997803Z"/>
      <path class="cls-2" d="m190.4892378,40.2804893v1.0494385c0,.4597168.3098145.7095947.699585.7095947h.1599121v.3198242h-2.3487549v-.3198242c.2099609,0,.8596191,0,.8596191-.7296143v-1.0294189h-2.7984619v-.3497925l3.1481934-5.0472412h.2799072v5.0772095h1.1893311v.3198242h-1.1893311Zm-.6296387-4.2077026l-2.4187012,3.8878784h2.4187012v-3.8878784Z"/>
      <path class="cls-2" d="m202.4660444,35.2032798h-3.9777832c0,.1299438.0299072,2.9483643.0299072,3.0283203v2.5585938c0,1.479187,0,1.5291748-.3098145,1.7990112-.1298828.1099243-.3897705.289856-.9194336.3398438-.0300293-.3198242-.0500488-.4797363-1.2492676-1.02948l.0299072-.0699463c.1398926.0200195,1.0494385.1099854,1.3592529.1099854.4997559,0,.5097656-.1199951.5097656-.8295898v-5.9067383h-2.7785645c-.3098145,0-.8695068.039978-1.2792969.1199341l-.2397461-.4297485c.5496826.039978,1.109375.0699463,1.6590576.0699463h5.7668457l.4597168-.5396729c.0499268-.0599976.119873-.1199951.1599121-.1199951.039917,0,.1298828.0599976.1799316.0999756l.6495361.5396729c.0500488.0499878.0999756.0999756.0999756.1599121,0,.0899658-.0899658.0999756-.1499023.0999756Z"/>
      <path class="cls-2" d="m210.8072309,35.3832114c-.0100098.1798706-.0200195.4597168-.0200195,1.109375,0,1.5591431.0499268,3.1182861.0999756,4.6774292,0,.1599121.0299072.9394531.0299072,1.0094604,0,.3497925-.329834.449707-.4897461.449707-.2098389,0-.1898193-.1699219-.1798096-.369751h-3.9278564c.0200195.2298584.0200195.2598267-.0200195.3198242-.0899658.1499023-.2797852.2298584-.40979.2298584-.2098389,0-.2098389-.1499023-.2098389-.2199097,0-.1798706.039917-.9794312.039917-1.1393433.0400391-1.2792969.0500488-2.548584.0500488-3.8278809,0-1.069458,0-2.3187256-.1699219-3.208252l.9394531.3997803h3.4980469l.2498779-.2498779c.0599365-.0599365.1099854-.0999756.1899414-.0999756.0599365,0,.1298828.0499878.1599121.0700073l.4296875.3198242c.1199951.0899048.1300049.1398926.1300049.1798706,0,.0699463,0,.1099854-.3897705.3498535Zm-.5596924-.329834h-3.9278564v2.1387939h3.9278564v-2.1387939Zm0,2.3786621h-3.9278564v2.1488037h3.9278564v-2.1488037Zm0,2.3886719h-3.9278564v2.1988525h3.9278564v-2.1988525Z"/>
      <path class="cls-2" d="m214.2909956,42.3593467v-.3198242h.3497314c.659668,0,.9794922-.2998657.9794922-.9794312v-4.4975586c0-.6496582-.2298584-.9394531-.9893799-.9394531h-.3398438v-.2698975h.1599121c.6096191,0,1.3392334-.2698364,1.5291748-.3797607.0699463-.039978.1499023-.0899658.2098389-.0899658.0499268,0,.0699463.0499878.0699463.0999756v6.0766602c0,.5696411.2298584.9794312.8795166.9794312h.4498291v.3198242h-3.2982178Z"/>
      <path class="cls-2" d="m221.9902143,41.1999839c-1.109375,1.2993164-1.6291504,1.6590576-2.05896,1.9289551l-.0299072-.0499878c.5596924-.6196899,1.1193848-1.3792114,1.4492188-2.1588135.0799561-.1998901.0899658-.3098145.0899658-.5397339l.8594971.5197754c.039917.0199585.0799561.0499268.0799561.1099243,0,.1398926-.1199951.1599121-.3897705.1898804Zm3.1282959-5.3670654h-1.2993164c0,.5697021.039917,3.3481445.0300293,3.9778442h.4396973l.1899414-.2199097c.0998535-.1099243.119873-.1298828.1699219-.1298828.0499268,0,.0898438.0299683.1798096.1099243l.2498779.2198486c.0500488.039978.0999756.0799561.0999756.1499634,0,.1099243-.1099854.1099243-.1499023.1099243h-3.4781494c-.1998291,0-.8095703.0199585-1.2893066.1099243l-.2398682-.4297485c.4398193.039978.5197754.039978,1.2493896.0699463.0100098-2.1987915.0100098-2.4386597-.0100098-3.9478149-.4897461.039978-.6096191.0599365-.7695312.0899658l-.2299805-.4298096c.40979.039978.9295654.0599976.989502.0599976-.0100098-.2299194-.0100098-.2698364-.0100098-.6696167,0-.4197998-.0899658-.7596436-.1599121-.9095459l.9294434.2098999c.0999756.0199585.1099854.0999146.1099854.1499023,0,.0899658-.0899658.1399536-.2998047.2498779-.0200195.4497681-.0200195.5197144-.0200195.9894409h1.519165c0-.2698364-.0200195-.9994507-.039917-1.2192993-.0100098-.0499878-.0999756-.3497925-.1199951-.40979l.8795166.2098999c.0499268.0100098.1199951.039978.1199951.1199341,0,.1299438-.1099854.1998901-.3098145.3198242-.0100098.289856-.0200195.4497681-.0300293.9794312h.4997559l.2198486-.2498779c.0799561-.0999146.1099854-.119873.1599121-.119873s.0599365.0099487.1799316.1099243l.2897949.2398682c.039917.0299683.0999756.0799561.0999756.1499023,0,.1099243-.1099854.1099243-.1499023.1099243Zm-3.3382568,2.7185059v.4597778c0,.3997803-.0098877.4497681,0,.7995605h1.5391846c.0100098-.1799316.0100098-1.0594482.0100098-1.2593384h-1.5491943Zm1.5491943-1.4492188h-1.5391846c-.0100098.5596924-.0100098.6296997-.0100098,1.2093506h1.5491943v-1.2093506Zm0-1.2692871h-1.5291748c0,.2098999-.0100098.289856-.0100098,1.0294189h1.5391846v-1.0294189Zm.7196045,6.2365723c-.2098389,0-.2897949-.1599121-.40979-.3797607-.4396973-.8295898-.6396484-.9694824-.8394775-1.1293945v-.039978c.7595215.2498779,1.5490723.5197144,1.5490723,1.1393433,0,.1499634-.0899658.40979-.2998047.40979Zm4.3675537-7.0661011c0,3.7879028.0300293,4.2177124.0300293,6.7962646v.0299683c0,.5197144-.0999756.9295044-1.0394287,1.1693726-.2198486-.5197144-.4398193-.6296387-1.069458-.9194946v-.0499878c.3198242.0299683.7496338.0499878.9295654.0499878.4296875,0,.6396484,0,.6396484-.369812v-2.7084961h-1.8590088c-.0699463,1.1893311-.1799316,2.8684082-2.2087402,4.0977173l-.0300293-.0599365c.3198242-.329834.8095703-.8295288,1.1793213-1.5891113.3398438-.7095947.619751-1.4291992.619751-4.7973633,0-.8795166,0-1.8889771-.1699219-2.6185913l.8494873.3997803h1.5592041l.1798096-.2198486c.0799561-.0899658.0799561-.1099243.1199951-.1099243.0299072,0,.039917.0099487.1398926.0899048l.4197998.3497925c.0699463.0599976.1098633.0899658.1098633.1499634,0,.0899048-.039917.1099243-.3997803.3098145Zm-.5096436,1.848999h-1.769043c-.0100098.1599121-.0699463,1.6190796-.0799561,1.9089355h1.848999v-1.9089355Zm0-2.178833h-1.769043v1.9389648h1.769043v-1.9389648Z"/>
    </g>
    <g>
      <path class="cls-2" d="m7.2673139,82.1449912c-1.8847656,0-3.171875-.5979004-4.0820312-1.4038086-.4287109.6240234-.9492188,1.2219238-1.703125,1.7290039l-.8837891-1.0791016c.7148438-.4289551,1.3261719-.9360352,1.6899414-1.5341797-.5068359-.7409668-.8710938-1.6508789-1.144043-2.3139648l1.144043-.5458984c.1689453.4938965.3901367,1.0917969.6499023,1.5600586.2729492-.8190918.3378906-1.7163086.3378906-2.314209H1.1052046v-1.0270996c1.0400391-1.1960449,2.0541992-2.8859863,2.0541992-2.8859863H.9621382v-1.170166h3.6274414v1.0791016s-1.1831055,2.0800781-1.8461914,2.8339844h1.8588867c0,1.4431152-.1166992,3.0422363-.7670898,4.550293.7802734.8061523,1.9243164,1.3520508,3.484375,1.3520508l5.03125-.0649414-.4418945,1.2348633h-4.6416016Zm1.5732422-2.5478516v.987793h-1.2739258v-.987793h-3.0161133v-1.0532227h3.0161133v-.8059082h-2.418457v-.9360352h2.418457v-.7800293h-2.418457v-.9360352h2.418457v-.8452148h-3.1074219v-.9619141h3.1074219v-.7929688h-2.3662109v-.9360352h2.3662109v-.7800293h1.2739258v.7800293h2.7431641v1.7290039h.6367188v.9619141h-.6367188v1.78125h-2.7431641v.7800293h2.7041016v.9360352h-2.7041016v.8059082h3.3413086v1.0532227h-3.3413086Zm1.5078125-7.1113281h-1.5078125v.7929688h1.5078125v-.7929688Zm0,1.7548828h-1.5078125v.8452148h1.5078125v-.8452148Z"/>
      <path class="cls-2" d="m26.4426069,81.9892295c-2.1582031-.5461426-3.6010742-1.5732422-4.7060547-2.6262207v3.1071777h-1.2739258v-3.0942383c-1.0009766,1.0791016-2.5742188,2.0800781-4.5112305,2.6262207l-.6762695-1.222168c1.8984375-.3898926,3.1333008-.9619141,3.9912109-1.625h-3.6791992v-1.1049805h4.8754883v-.559082h.4418945l-.6108398-.6240234c-.5463867.1430664-2.5615234.480957-4.6025391.7541504l-.3637695-1.1052246c.7280273-.052002,1.5859375-.1298828,2.1450195-.2080078v-1.3520508h-1.5991211v-.9748535h.480957l-.8447266-.8452148s1.3388672-.9099121,2.0927734-2.3789062l1.2089844.2597656c-.0908203.1691895-.1816406.3381348-.2729492.4941406h2.8339844v.8969727c.3774414-.4289551.7670898-1.0400391,1.0014648-1.6120605l1.2607422.1821289c-.078125.1818848-.1557617.3640137-.2470703.532959h3.3803711v.9880371h-1.7553711c.1953125.2729492.4291992.6369629.4291992.6369629l-1.1181641.5332031c-.1430664-.3771973-.3901367-.8452148-.5981445-1.170166h-.9355469c-.3125.4680176-.715332,1.0009766-.8974609,1.2089844h3.3671875v2.2751465c0,.4289551.0913086.4418945.3642578.4418945.2080078,0,.2729492-.0258789.2729492-1.3779297l1.0791016.5458984c0,1.7941895-.6113281,1.9111328-1.1572266,1.9111328h-.6240234c-.6499023,0-1.144043-.2209473-1.144043-.9619141l-.7797852.7409668s-.2470703-.6501465-.9492188-1.2351074c-.3251953.9621582-1.1572266,1.4431152-1.1572266,1.4431152h.5722656v.559082h4.9272461v1.1049805h-3.6791992c.8837891.6240234,2.2231445,1.2609863,3.9780273,1.6120605l-.5200195,1.222168Zm-6.097168-5.4604492c.8969727-.5717773.9360352-1.2348633.9360352-2.1318359v-.689209h.4160156l-.8452148-.7409668s.2602539-.2209473.4550781-.4680176h-1.3647461c.2080078.3120117.5200195.7280273.5200195.7280273l-1.0791016.5720215s-.3642578-.7929688-.6889648-1.3000488h-.8710938c-.3769531.532959-1.1181641,1.2871094-1.3520508,1.4821777h3.7700195v.9748535h-1.5083008v1.1569824c.8583984-.1040039,1.6381836-.2729492,1.6381836-.2729492l-.0258789.6889648Zm3.7050781-1.8198242h-1.546875v.2988281c0,.2211914-.0390625.5461426-.1298828.8581543l.6499023-.5461426c.7670898.5849609,1.0268555,1.170166,1.0268555,1.170166v-1.7810059Z"/>
      <path class="cls-2" d="m41.0934858,76.5029014c-2.0668945-.2861328-3.7177734-.8190918-5.0048828-1.3391113-1.3652344.6240234-3.2241211,1.2480469-5.7075195,1.6252441l-.480957-1.2612305c1.9501953-.2080078,3.5493164-.5720215,4.7714844-1.013916-.9624023-.5200195-1.6123047-.9880371-1.9375-1.2480469-.8447266.4160156-1.5209961.6369629-1.5209961.6369629l-.7280273-1.1181641s2.4833984-.6499023,3.7832031-2.0019531l1.3520508.2338867c-.1430664.2080078-.5458984.5070801-.7797852.6501465h4.6542969v1.144043s-.5722656.7150879-2.0283203,1.6379395c1.1308594.3642578,2.5351562.6240234,4.1342773.7670898l-.5073242,1.2871094Zm-.2080078,5.564209c-2.027832-.9489746-3.5620117-2.1062012-4.5239258-3.2502441v3.6533203h-1.2612305v-3.6533203c-1.0136719,1.1831055-2.4311523,2.3012695-4.472168,3.1853027l-.7280273-1.1831055c1.9633789-.7409668,3.3544922-1.5991211,4.2641602-2.4050293h-3.9521484v-1.170166h4.8881836v-1.144043h1.2612305v1.144043h4.9272461v1.170166h-3.9912109c.7797852.6889648,2.2749023,1.625,4.315918,2.4699707l-.7280273,1.1831055Zm-6.9033203-9.2824707c.3901367.3120117,1.1313477.7541504,2.0932617,1.1572266,1.2348633-.5849609,1.8071289-1.1572266,1.8071289-1.1572266h-3.9003906Z"/>
      <path class="cls-2" d="m45.9811811,82.4701865v-6.7211914c-.3378906.5200195-.7670898,1.0788574-.7670898,1.0788574l-.7929688-1.2609863s1.9243164-2.0019531,2.7563477-4.7712402l1.2216797.3640137c-.3769531,1.092041-.7016602,1.8461914-1.1435547,2.6391602v8.6713867h-1.2744141Zm5.8505859,0v-4.0170898h-3.5883789v-1.144043h3.5883789v-2.7822266h-2.1582031c-.5332031,1.1181641-1.0664062,1.6640625-1.0664062,1.6640625l-.9619141-.8840332s1.144043-1.0529785,1.8071289-3.7312012l1.222168.2080078c-.1430664.5981445-.3510742,1.1181641-.5200195,1.5991211h1.6772461v-2.6130371h1.2739258v2.6130371h2.6000977v1.144043h-2.6000977v2.7822266h3.1201172v1.144043h-3.1201172v4.0170898h-1.2739258Z"/>
      <path class="cls-2" d="m60.6974897,82.4701865v-6.6953125c-.4682617.611084-.8842773,1.0009766-.8842773,1.0009766l-.6630859-1.2089844c1.0922852-1.0270996,2.2099609-2.6391602,2.847168-4.7712402l1.1699219.3640137c-.324707,1.1181641-.7407227,2.0800781-1.1831055,2.8730469v8.4375h-1.2866211Zm5.4082031-1.3652344c1.8720703,0,2.0537109-.0388184,2.0537109-.7019043v-5.9152832h-5.2128906v-1.1699219h5.2128906v-2.4182129h1.300293v2.4182129h1.3911133v1.1699219h-1.3911133v5.8762207c0,1.3649902-.2080078,2.0021973-2.8339844,2.0021973l-.5200195-1.2612305Zm-.5981445-1.8459473s-.7021484-1.8330078-1.7680664-3.2502441l1.144043-.5458984c1.1049805,1.4169922,1.7680664,3.1459961,1.7680664,3.1459961l-1.144043.6501465Z"/>
      <path class="cls-2" d="m82.7712202,81.9369834c-1.1435547.1430664-2.1967773.2080078-3.1459961.2080078-2.9379883,0-4.7841797-.7148438-4.7841797-2.5478516,0-.0651855.0131836-.1430664.0131836-.2211914.1298828-1.5859375,1.625-2.3010254,3.6533203-2.3010254.7148438,0,1.4946289.0910645,2.3007812.2600098-.3120117-.3769531-.6367188-.8579102-.9492188-1.4040527-1.8198242.1950684-3.6137695.3381348-5.2651367.4421387l-.1557617-1.300293h.1948242c1.222168,0,2.8994141-.1169434,4.6411133-.2858887-.1816406-.3640137-.3505859-.7409668-.5200195-1.1179199-1.3911133.1428223-2.7558594.2468262-3.8740234.2858887l-.1430664-1.2609863h.4291992c.8710938,0,1.9760742-.052002,3.1201172-.1560059-.1689453-.4550781-.3251953-.8840332-.4682617-1.3000488l1.3911133-.2861328c.1040039.4291992.2729492.9101562.480957,1.4431152,1.3134766-.1430664,2.5742188-.3381348,3.4970703-.5461426l.1171875,1.2351074c-.9360352.1560059-2.027832.2990723-3.1459961.4289551.1430664.3251953.3120117.6501465.559082,1.1052246,1.1958008-.1430664,2.3398438-.3249512,3.3149414-.5070801l.1430664,1.2609863c-.9101562.1430664-1.8588867.2731934-2.8212891.3901367.5981445.9748535,1.2871094,1.8850098,1.9892578,2.4960938l-1.0791016.8840332c-.9619141-.5849609-2.3398438-.8969727-3.5229492-.8969727-1.300293,0-2.3793945.3769531-2.4443359,1.144043v.1040039c0,1.0529785,1.3911133,1.3779297,3.1074219,1.3779297,1.0917969,0,2.3007812-.1430664,3.3666992-.3120117v1.3779297Z"/>
      <path class="cls-2" d="m87.7502241,81.9111045v-1.2089844h5.1484375v-4.8103027h-4.3422852v-1.2089844h4.3422852v-3.7832031h1.3911133v3.7832031h4.3681641v1.2089844h-4.3681641v4.8103027h5.1611328v1.2089844h-11.7006836Z"/>
      <path class="cls-2" d="m106.4313764,79.7399619s-1.2089844.611084-3.6918945,1.4560547l-.3383789-1.3000488c.5205078-.1298828,1.0141602-.3249512,1.4560547-.480957v-4.0561523h-1.1699219v-1.1699219h1.1699219v-3.0422363h1.2480469v3.0422363h1.1962891v1.1699219h-1.1962891v3.6791992c.9233398-.3769531,1.3261719-.5981445,1.3261719-.5981445v1.3000488Zm2.2099609,2.3791504s-1.1699219,0-1.1699219-1.1569824v-5.7592773l-.8320312.1560059v-1.222168l.8320312-.1557617v-2.3791504h1.2353516v2.1711426l1.1049805-.2211914v-2.7819824h1.2089844v2.5610352l2.4702148-.480957v3.9909668c0,1.222168-.2602539,1.4951172-1.7944336,1.5732422l-.3896484-1.144043c.9487305,0,.9487305-.052002.9487305-.559082v-2.4179688l-1.2348633.2338867v4.5241699h-1.2089844v-4.3161621l-1.1049805.2209473v5.5383301c0,.4680176.5200195.4550781.5200195.4550781h2.2749023c1.0268555,0,1.2612305-.0131836,1.2612305-1.8720703l1.2866211.7668457c0,1.8461914-.8320312,2.2751465-1.8847656,2.2751465h-3.5234375Z"/>
      <path class="cls-2" d="m117.4421186,81.4950889l.0131836-.6889648c.078125-1.9370117,1.3652344-3.5361328,3.1201172-4.3813477,1.6508789-.7797852,2.2749023-1.5339355,2.2749023-2.4050293,0-.9748535-.7016602-1.625-1.9628906-1.625-1.065918,0-1.9370117.8320312-1.9892578,2.157959l-1.3647461-.3249512c.0908203-1.9108887,1.5727539-3.1071777,3.4321289-3.1071777,2.1708984,0,3.40625,1.1962891,3.40625,2.8342285,0,1.4299316-.8320312,2.4699707-2.925293,3.4321289-1.3388672.611084-2.3139648,1.677002-2.3662109,2.795166h5.3564453v1.3129883h-6.9946289Z"/>
      <path class="cls-2" d="m127.7121382,76.4247764c0-2.9638672,1.1699219-5.3041992,3.7182617-5.3041992,2.5351562,0,3.7177734,2.314209,3.7177734,5.3041992,0,3.0942383-1.1826172,5.3041992-3.7177734,5.3041992-2.5483398,0-3.7182617-2.1318359-3.7182617-5.3041992Zm5.9541016,0c0-2.2490234-.7407227-4.0039062-2.2358398-4.0039062s-2.2363281,1.7028809-2.2363281,4.0039062c0,2.340332.7539062,4.017334,2.2363281,4.017334,1.46875,0,2.2358398-1.677002,2.2358398-4.017334Z"/>
      <path class="cls-2" d="m139.9577436,81.8200401v.6501465h-1.2871094v-11.2194824h10.4135742v1.170166h-9.1264648v8.229248h9.6333008v1.1699219h-9.6333008Zm7.3193359-1.8850098s-.9750977-1.144043-2.4702148-2.6000977c-1.7807617,1.8720703-3.4711914,2.847168-3.4711914,2.847168l-.8706055-.9880371s1.8330078-.8972168,3.4580078-2.7041016c-.8579102-.8061523-1.8461914-1.5600586-2.8730469-2.3662109l.8969727-.8320312c1.0268555.7800293,1.9238281,1.5341797,2.769043,2.2880859.6762695-.8059082,1.2480469-1.7290039,1.6899414-2.7819824l1.1831055.4680176c-.5327148,1.2351074-1.2739258,2.2880859-2.0151367,3.1721191,1.5859375,1.5080566,2.6259766,2.6259766,2.6259766,2.6259766l-.9228516.8710938Z"/>
      <path class="cls-2" d="m155.4147749,79.5448936v-6.1621094h2.5742188v-1.065918h-4.7709961v-1.1052246h10.894043v1.1052246h-4.8491211v1.065918h2.6523438v6.1621094h-6.5004883Zm7.3452148,2.925293v-.7670898h-8.1899414v.7670898h-1.222168v-8.2683105h1.222168v6.3962402h8.1899414v-6.3962402h1.222168v8.2683105h-1.222168Zm-4.7060547-8.0473633h-1.4951172v1.5080566h1.4951172v-1.5080566Zm0,2.4179688h-1.4951172v1.6640625h1.4951172v-1.6640625Zm2.7172852-2.4179688h-1.5732422v1.5080566h1.5732422v-1.5080566Zm0,2.4179688h-1.5732422v1.6640625h1.5732422v-1.6640625Z"/>
      <path class="cls-2" d="m167.2316694,81.8852256l11.3886719-11.3886719.7280273.7280273-11.3754883,11.4016113-.7412109-.7409668Z"/>
      <path class="cls-2" d="m184.4050093,82.4701865v-3.9130859c-.3251953.987793-.9101562,2.2099609-1.5600586,2.9379883l-.7802734-1.2739258c.9492188-.7541504,1.5473633-1.7680664,1.8071289-2.4182129h-1.4560547v-1.092041h1.9892578v-1.1569824h-2.1191406v-1.0791016h1.1958008c-.1298828-.6240234-.3120117-1.3129883-.4545898-1.6640625h-.4814453v-1.0400391h1.8852539v-1.0009766h1.2480469v1.0009766h1.8852539v1.0400391h-.4682617c-.0649414.3510742-.2861328,1.0791016-.4941406,1.6640625h1.2744141v1.0791016h-2.2104492v1.1569824h2.0800781v1.092041h-1.4819336c.6108398,1.144043,1.4042969,1.8459473,1.4042969,1.8459473l-.8583984,1.144043s-.7407227-1.1308594-1.144043-2.4050293v4.0822754h-1.2607422Zm1.0136719-7.9953613c.1953125-.559082.3642578-1.2609863.4291992-1.6640625h-1.6118164c.1298828.3769531.2988281,1.0661621.4287109,1.6640625h.7539062Zm5.7333984,7.9953613v-6.8513184h-1.2998047c0,2.6391602-.3383789,4.979248-1.4692383,6.6171875l-.987793-1.0270996c1.0268555-1.5859375,1.1826172-3.25,1.1826172-5.8371582v-3.861084c2.8730469-.0910645,4.1601562-.6630859,4.1601562-.6630859l.6894531,1.0532227c-1.6513672.6499023-3.5751953.7148438-3.5751953.7148438v1.8330078h3.9130859v1.170166h-1.3129883v6.8513184h-1.300293Z"/>
      <path class="cls-2" d="m207.8571577,81.9892295c-2.1582031-.5461426-3.6010742-1.5732422-4.7060547-2.6262207v3.1071777h-1.2739258v-3.0942383c-1.0014648,1.0791016-2.5742188,2.0800781-4.5112305,2.6262207l-.6762695-1.222168c1.8979492-.3898926,3.1333008-.9619141,3.9912109-1.625h-3.6791992v-1.1049805h4.8754883v-.559082h.4418945l-.6113281-.6240234c-.5458984.1430664-2.5610352.480957-4.6020508.7541504l-.3637695-1.1052246c.7280273-.052002,1.5859375-.1298828,2.1450195-.2080078v-1.3520508h-1.5991211v-.9748535h.480957l-.8452148-.8452148s1.3393555-.9099121,2.0932617-2.3789062l1.2089844.2597656c-.0908203.1691895-.1821289.3381348-.2729492.4941406h2.8339844v.8969727c.3769531-.4289551.7670898-1.0400391,1.0009766-1.6120605l1.2612305.1821289c-.078125.1818848-.1557617.3640137-.2470703.532959h3.3803711v.9880371h-1.7553711c.1953125.2729492.4291992.6369629.4291992.6369629l-1.1181641.5332031c-.1430664-.3771973-.3896484-.8452148-.5976562-1.170166h-.9365234c-.3115234.4680176-.7148438,1.0009766-.8969727,1.2089844h3.3671875v2.2751465c0,.4289551.0913086.4418945.3642578.4418945.2080078,0,.2729492-.0258789.2729492-1.3779297l1.0791016.5458984c0,1.7941895-.6113281,1.9111328-1.1572266,1.9111328h-.6240234c-.6499023,0-1.144043-.2209473-1.144043-.9619141l-.7797852.7409668s-.2470703-.6501465-.9492188-1.2351074c-.3251953.9621582-1.1572266,1.4431152-1.1572266,1.4431152h.5722656v.559082h4.9272461v1.1049805h-3.6791992c.8837891.6240234,2.2231445,1.2609863,3.9780273,1.6120605l-.5200195,1.222168Zm-6.097168-5.4604492c.8969727-.5717773.9360352-1.2348633.9360352-2.1318359v-.689209h.4160156l-.8452148-.7409668s.2602539-.2209473.4550781-.4680176h-1.3647461c.2080078.3120117.5200195.7280273.5200195.7280273l-1.0791016.5720215s-.3642578-.7929688-.6889648-1.3000488h-.8710938c-.3769531.532959-1.1181641,1.2871094-1.3520508,1.4821777h3.7700195v.9748535h-1.5078125v1.1569824c.8579102-.1040039,1.6376953-.2729492,1.6376953-.2729492l-.0258789.6889648Zm3.7050781-1.8198242h-1.546875v.2988281c0,.2211914-.0390625.5461426-.1303711.8581543l.6503906-.5461426c.7670898.5849609,1.0268555,1.170166,1.0268555,1.170166v-1.7810059Z"/>
      <path class="cls-2" d="m211.3405561,75.1767295c1.9111328-1.1049805,3.003418-2.3010254,3.7832031-4.394043l1.1704102.4941406c-.793457,2.157959-1.8203125,3.6401367-3.9785156,5.0180664l-.9750977-1.1181641Zm5.9545898,5.8503418c2.3789062,0,2.3920898-.2209473,2.3920898-1.3259277v-3.0812988h-2.5874023c-.1040039,1.2351074-.7407227,4.5891113-4.3681641,5.8503418l-.7670898-1.1960449c3.1333008-.8972168,3.7055664-3.2893066,3.7705078-4.6542969h-2.184082v-1.1699219h7.4492188v3.6140137c0,2.5092773-.1430664,3.1201172-3.1723633,3.1982422l-.5327148-1.2351074Zm4.7319336-4.8232422c-1.8071289-1.3649902-3.0551758-2.6779785-3.9648438-4.927002l1.1176758-.4941406c.8842773,1.9890137,2.0283203,3.25,3.8222656,4.3161621l-.9750977,1.1049805Z"/>
      <path class="cls-2" d="m225.9396772,73.9809287v-1.0400391h4.394043v1.0400391h-4.394043Zm1.5991211,7.9951172v.4941406h-1.1831055v-4.0952148h3.6533203v3.6010742h-2.4702148Zm-1.0268555-9.854248v-.9750977h3.328125v.9750977h-3.328125Zm0,5.4082031v-.9489746h3.328125v.9489746h-3.328125Zm.0126953-1.755127v-.9489746h3.3154297v.9489746h-3.3154297Zm2.2753906,3.5620117h-1.2612305v1.5341797h1.2612305v-1.5341797Zm8.0209961,3.1201172c-2.1318359-1.3259277-2.7041016-3.3669434-2.8466797-3.9130859h-.4814453c-.1298828.1950684-.3378906.4421387-.5327148.6240234v1.9111328c.5068359-.1040039.987793-.2338867,1.4951172-.4030762l.0517578,1.0400391c-1.3647461.5070801-3.5361328.7409668-3.5361328.7409668l-.2861328-1.0917969s.4291992-.026123,1.0400391-.1040039v-1.2092285c-.6240234.3901367-1.1176758.6501465-1.1176758.6501465l-.5463867-1.0791016c.8969727-.2600098,1.6254883-.6369629,2.1191406-1.0791016h-1.9111328v-.9750977h1.6772461v-.8449707h-1.2348633v-.8190918h1.2348633v-.7668457h-1.3911133v-.8710938h1.3911133v-.7929688c-.2988281.2468262-.637207.454834-.637207.454834l-.8188477-.7148438s.7280273-.3640137,1.0917969-.7150879h-1.1308594v-1.0270996h2.7299805v-.7019043h1.2612305v.7019043h2.9511719v1.0270996h-1.065918c.324707.3249512.9619141.6369629.9619141.6369629l-.7539062.8190918s-.7543945-.5070801-1.3652344-1.1049805l.4418945-.3510742h-3.4580078l.4677734.3898926c-.1557617.1950684-.402832.3901367-.5976562.5461426h1.1181641v.8320312h1.4819336v-.8190918h1.1958008v.8190918h1.3779297v.8710938h-1.3779297v.7668457h1.1049805v.8190918h-1.1049805v.8449707h1.7163086v.9750977h-2.3920898c.078125.2990723.2338867.6501465.4287109.9880371.2861328-.2080078.5981445-.5720215.7543945-.8320312l1.0009766.5852051c-.2729492.3898926-.7802734.8579102-1.1313477,1.1049805.2993164.3120117.8583984.7019043,1.4301758.9360352l-.8061523,1.1308594Zm-2.1967773-7.3190918h-1.4819336v.7668457h1.4819336v-.7668457Zm0,1.5859375h-1.4819336v.8449707h1.4819336v-.8449707Z"/>
      <path class="cls-2" d="m245.322978,81.4950889v-2.2231445h-4.9013672v-1.2871094l4.8232422-6.630127h1.4692383v6.65625h1.703125v1.2609863h-1.703125v2.2231445h-1.3911133Zm0-8.1904297l-3.4189453,4.7062988h3.4189453v-4.7062988Z"/>
      <path class="cls-2" d="m252.9538374,82.4701865v-6.8513184c-.1821289.9099121-.4682617,2.1711426-.9882812,3.4191895l-.8061523-1.3129883c.7021484-1.1052246,1.300293-2.6911621,1.4560547-3.6013184h-1.1176758v-1.1699219h1.4560547v-2.184082h1.2089844v2.184082h1.2348633v1.1699219h-.9360352c.6889648,1.2351074,1.1831055,1.7680664,1.1831055,1.7680664l-.7929688,1.2871094s-.3383789-.8969727-.6889648-2.0021973v7.293457h-1.2089844Zm9.0219727-.7150879c-1.065918-.9099121-1.8071289-1.8981934-2.2880859-2.9382324v3.6533203h-1.2739258v-3.5881348c-.5068359,1.1179199-1.4560547,2.2880859-2.5742188,3.0290527l-.9750977-1.222168c1.1962891-.5458984,2.3530273-1.5209961,2.8735352-2.3920898h-1.9111328v-4.7060547h2.5869141v-.8710938h-2.9902344v-1.092041h2.9902344v-.8579102h1.2739258v.8579102h2.8344727v1.092041h-2.8344727v.8710938h2.5742188v4.7060547h-1.8588867c.5327148.7541504,1.3388672,1.5083008,2.4570312,2.1582031l-.8842773,1.3000488Zm-3.5361328-7.215332h-1.3647461v.8840332h1.3647461v-.8840332Zm0,1.7941895h-1.3647461v1.013916h1.3647461v-1.013916Zm2.5742188-1.7941895h-1.3520508v.8840332h1.3520508v-.8840332Zm0,1.7941895h-1.3520508v1.013916h1.3520508v-1.013916Z"/>
    </g>
  </g>
</svg>